<svg viewBox="0 0 330 200" xmlns="http://www.w3.org/2000/svg"><g><g><g><g><g><line x1="49.98400115966797" y1="178.61999988555908" x2="44.98400115966797" y2="178.61999988555908" style="visibility: inherit;" fill="rgb(0, 0, 0)" stroke="rgb(204, 204, 204)" stroke-width="1px"></line><line x1="49.98400115966797" y1="163.73499989509583" x2="44.98400115966797" y2="163.73499989509583" style="visibility: inherit;" fill="rgb(0, 0, 0)" stroke="rgb(204, 204, 204)" stroke-width="1px"></line><line x1="49.98400115966797" y1="148.84999990463254" x2="44.98400115966797" y2="148.84999990463254" style="visibility: inherit;" fill="rgb(0, 0, 0)" stroke="rgb(204, 204, 204)" stroke-width="1px"></line><line x1="49.98400115966797" y1="133.96499991416925" x2="44.98400115966797" y2="133.96499991416925" style="visibility: inherit;" fill="rgb(0, 0, 0)" stroke="rgb(204, 204, 204)" stroke-width="1px"></line><line x1="49.98400115966797" y1="119.079999923706" x2="44.98400115966797" y2="119.079999923706" style="visibility: inherit;" fill="rgb(0, 0, 0)" stroke="rgb(204, 204, 204)" stroke-width="1px"></line><line x1="49.98400115966797" y1="104.1949999332429" x2="44.98400115966797" y2="104.1949999332429" style="visibility: inherit;" fill="rgb(0, 0, 0)" stroke="rgb(204, 204, 204)" stroke-width="1px"></line><line x1="49.98400115966797" y1="89.30999994277963" x2="44.98400115966797" y2="89.30999994277963" style="visibility: inherit;" fill="rgb(0, 0, 0)" stroke="rgb(204, 204, 204)" stroke-width="1px"></line><line x1="49.98400115966797" y1="74.42499995231636" x2="44.98400115966797" y2="74.42499995231636" style="visibility: inherit;" fill="rgb(0, 0, 0)" stroke="rgb(204, 204, 204)" stroke-width="1px"></line><line x1="49.98400115966797" y1="59.53999996185307" x2="44.98400115966797" y2="59.53999996185307" style="visibility: inherit;" fill="rgb(0, 0, 0)" stroke="rgb(204, 204, 204)" stroke-width="1px"></line><line x1="49.98400115966797" y1="44.6549999713898" x2="44.98400115966797" y2="44.6549999713898" style="visibility: inherit;" fill="rgb(0, 0, 0)" stroke="rgb(204, 204, 204)" stroke-width="1px"></line><line x1="49.98400115966797" y1="29.769999980926542" x2="44.98400115966797" y2="29.769999980926542" style="visibility: inherit;" fill="rgb(0, 0, 0)" stroke="rgb(204, 204, 204)" stroke-width="1px"></line><line x1="49.98400115966797" y1="14.884999990463257" x2="44.98400115966797" y2="14.884999990463257" style="visibility: inherit;" fill="rgb(0, 0, 0)" stroke="rgb(204, 204, 204)" stroke-width="1px"></line><line x1="49.98400115966797" y1="0" x2="44.98400115966797" y2="0" style="visibility: inherit;" fill="rgb(0, 0, 0)" stroke="rgb(204, 204, 204)" stroke-width="1px"></line></g><g transform="translate(39.98400115966797, 0)"><text style="text-anchor: end; visibility: hidden; font-family: &quot;Helvetica Neue&quot;, sans-serif; font-size: 12px; font-weight: 200;" x="0" y="178.61999988555908" dx="0em" dy="0.3em" fill="rgb(50, 49, 63)" stroke="none" stroke-width="1px">0.89</text><text style="text-anchor: end; visibility: inherit; font-family: &quot;Helvetica Neue&quot;, sans-serif; font-size: 12px; font-weight: 200;" x="0" y="163.73499989509583" dx="0em" dy="0.3em" fill="rgb(50, 49, 63)" stroke="none" stroke-width="1px">0.9</text><text style="text-anchor: end; visibility: hidden; font-family: &quot;Helvetica Neue&quot;, sans-serif; font-size: 12px; font-weight: 200;" x="0" y="148.84999990463254" dx="0em" dy="0.3em" fill="rgb(50, 49, 63)" stroke="none" stroke-width="1px">0.91</text><text style="text-anchor: end; visibility: inherit; font-family: &quot;Helvetica Neue&quot;, sans-serif; font-size: 12px; font-weight: 200;" x="0" y="133.96499991416925" dx="0em" dy="0.3em" fill="rgb(50, 49, 63)" stroke="none" stroke-width="1px">0.92</text><text style="text-anchor: end; visibility: hidden; font-family: &quot;Helvetica Neue&quot;, sans-serif; font-size: 12px; font-weight: 200;" x="0" y="119.079999923706" dx="0em" dy="0.3em" fill="rgb(50, 49, 63)" stroke="none" stroke-width="1px">0.93</text><text style="text-anchor: end; visibility: inherit; font-family: &quot;Helvetica Neue&quot;, sans-serif; font-size: 12px; font-weight: 200;" x="0" y="104.1949999332429" dx="0em" dy="0.3em" fill="rgb(50, 49, 63)" stroke="none" stroke-width="1px">0.94</text><text style="text-anchor: end; visibility: hidden; font-family: &quot;Helvetica Neue&quot;, sans-serif; font-size: 12px; font-weight: 200;" x="0" y="89.30999994277963" dx="0em" dy="0.3em" fill="rgb(50, 49, 63)" stroke="none" stroke-width="1px">0.95</text><text style="text-anchor: end; visibility: inherit; font-family: &quot;Helvetica Neue&quot;, sans-serif; font-size: 12px; font-weight: 200;" x="0" y="74.42499995231636" dx="0em" dy="0.3em" fill="rgb(50, 49, 63)" stroke="none" stroke-width="1px">0.96</text><text style="text-anchor: end; visibility: hidden; font-family: &quot;Helvetica Neue&quot;, sans-serif; font-size: 12px; font-weight: 200;" x="0" y="59.53999996185307" dx="0em" dy="0.3em" fill="rgb(50, 49, 63)" stroke="none" stroke-width="1px">0.97</text><text style="text-anchor: end; visibility: inherit; font-family: &quot;Helvetica Neue&quot;, sans-serif; font-size: 12px; font-weight: 200;" x="0" y="44.6549999713898" dx="0em" dy="0.3em" fill="rgb(50, 49, 63)" stroke="none" stroke-width="1px">0.98</text><text style="text-anchor: end; visibility: hidden; font-family: &quot;Helvetica Neue&quot;, sans-serif; font-size: 12px; font-weight: 200;" x="0" y="29.769999980926542" dx="0em" dy="0.3em" fill="rgb(50, 49, 63)" stroke="none" stroke-width="1px">0.99</text><text style="text-anchor: end; visibility: inherit; font-family: &quot;Helvetica Neue&quot;, sans-serif; font-size: 12px; font-weight: 200;" x="0" y="14.884999990463257" dx="0em" dy="0.3em" fill="rgb(50, 49, 63)" stroke="none" stroke-width="1px">1</text><text style="text-anchor: end; visibility: hidden; font-family: &quot;Helvetica Neue&quot;, sans-serif; font-size: 12px; font-weight: 200;" x="0" y="0" dx="0em" dy="0.3em" fill="rgb(50, 49, 63)" stroke="none" stroke-width="1px">1.01</text></g><line x1="49.98400115966797" y1="0" x2="49.98400115966797" y2="178.61999988555908" fill="rgb(0, 0, 0)" stroke="rgb(204, 204, 204)" stroke-width="1px"></line></g></g><g transform="translate(49, 0)" clip-path="url(#clip_0)"><clipPath id="clip_0"><rect width="280" height="178"></rect></clipPath><g><g><g><line x1="0" y1="0" x2="0" y2="178.61999988555908" fill="rgb(0, 0, 0)" stroke="rgb(60, 60, 60)" stroke-width="1px" opacity="0.25"></line><line x1="20.00114277430943" y1="0" x2="20.00114277430943" y2="178.61999988555908" fill="rgb(0, 0, 0)" stroke="rgb(60, 60, 60)" stroke-width="1px" opacity="0.25"></line><line x1="40.00228554861886" y1="0" x2="40.00228554861886" y2="178.61999988555908" fill="rgb(0, 0, 0)" stroke="rgb(60, 60, 60)" stroke-width="1px" opacity="0.25"></line><line x1="60.003428322928286" y1="0" x2="60.003428322928286" y2="178.61999988555908" fill="rgb(0, 0, 0)" stroke="rgb(60, 60, 60)" stroke-width="1px" opacity="0.25"></line><line x1="80.00457109723772" y1="0" x2="80.00457109723772" y2="178.61999988555908" fill="rgb(0, 0, 0)" stroke="rgb(60, 60, 60)" stroke-width="1px" opacity="0.25"></line><line x1="100.00571387154716" y1="0" x2="100.00571387154716" y2="178.61999988555908" fill="rgb(0, 0, 0)" stroke="rgb(60, 60, 60)" stroke-width="1px" opacity="0.25"></line><line x1="120.00685664585657" y1="0" x2="120.00685664585657" y2="178.61999988555908" fill="rgb(0, 0, 0)" stroke="rgb(60, 60, 60)" stroke-width="1px" opacity="0.25"></line><line x1="140.00799942016602" y1="0" x2="140.00799942016602" y2="178.61999988555908" fill="rgb(0, 0, 0)" stroke="rgb(60, 60, 60)" stroke-width="1px" opacity="0.25"></line><line x1="160.00914219447543" y1="0" x2="160.00914219447543" y2="178.61999988555908" fill="rgb(0, 0, 0)" stroke="rgb(60, 60, 60)" stroke-width="1px" opacity="0.25"></line><line x1="180.0102849687849" y1="0" x2="180.0102849687849" y2="178.61999988555908" fill="rgb(0, 0, 0)" stroke="rgb(60, 60, 60)" stroke-width="1px" opacity="0.25"></line><line x1="200.01142774309432" y1="0" x2="200.01142774309432" y2="178.61999988555908" fill="rgb(0, 0, 0)" stroke="rgb(60, 60, 60)" stroke-width="1px" opacity="0.25"></line><line x1="220.01257051740373" y1="0" x2="220.01257051740373" y2="178.61999988555908" fill="rgb(0, 0, 0)" stroke="rgb(60, 60, 60)" stroke-width="1px" opacity="0.25"></line><line x1="240.01371329171315" y1="0" x2="240.01371329171315" y2="178.61999988555908" fill="rgb(0, 0, 0)" stroke="rgb(60, 60, 60)" stroke-width="1px" opacity="0.25"></line><line x1="260.0148560660226" y1="0" x2="260.0148560660226" y2="178.61999988555908" fill="rgb(0, 0, 0)" stroke="rgb(60, 60, 60)" stroke-width="1px" opacity="0.25"></line><line x1="280.01599884033203" y1="0" x2="280.01599884033203" y2="178.61999988555908" fill="rgb(0, 0, 0)" stroke="rgb(60, 60, 60)" stroke-width="1px" opacity="0.25"></line></g><g><line x1="0" y1="178.61999988555908" x2="280.01599884033203" y2="178.61999988555908" fill="rgb(0, 0, 0)" stroke="rgb(60, 60, 60)" stroke-width="1px" opacity="0.25"></line><line x1="0" y1="163.73499989509583" x2="280.01599884033203" y2="163.73499989509583" fill="rgb(0, 0, 0)" stroke="rgb(60, 60, 60)" stroke-width="1px" opacity="0.25"></line><line x1="0" y1="148.84999990463254" x2="280.01599884033203" y2="148.84999990463254" fill="rgb(0, 0, 0)" stroke="rgb(60, 60, 60)" stroke-width="1px" opacity="0.25"></line><line x1="0" y1="133.96499991416925" x2="280.01599884033203" y2="133.96499991416925" fill="rgb(0, 0, 0)" stroke="rgb(60, 60, 60)" stroke-width="1px" opacity="0.25"></line><line x1="0" y1="119.079999923706" x2="280.01599884033203" y2="119.079999923706" fill="rgb(0, 0, 0)" stroke="rgb(60, 60, 60)" stroke-width="1px" opacity="0.25"></line><line x1="0" y1="104.1949999332429" x2="280.01599884033203" y2="104.1949999332429" fill="rgb(0, 0, 0)" stroke="rgb(60, 60, 60)" stroke-width="1px" opacity="0.25"></line><line x1="0" y1="89.30999994277963" x2="280.01599884033203" y2="89.30999994277963" fill="rgb(0, 0, 0)" stroke="rgb(60, 60, 60)" stroke-width="1px" opacity="0.25"></line><line x1="0" y1="74.42499995231636" x2="280.01599884033203" y2="74.42499995231636" fill="rgb(0, 0, 0)" stroke="rgb(60, 60, 60)" stroke-width="1px" opacity="0.25"></line><line x1="0" y1="59.53999996185307" x2="280.01599884033203" y2="59.53999996185307" fill="rgb(0, 0, 0)" stroke="rgb(60, 60, 60)" stroke-width="1px" opacity="0.25"></line><line x1="0" y1="44.6549999713898" x2="280.01599884033203" y2="44.6549999713898" fill="rgb(0, 0, 0)" stroke="rgb(60, 60, 60)" stroke-width="1px" opacity="0.25"></line><line x1="0" y1="29.769999980926542" x2="280.01599884033203" y2="29.769999980926542" fill="rgb(0, 0, 0)" stroke="rgb(60, 60, 60)" stroke-width="1px" opacity="0.25"></line><line x1="0" y1="14.884999990463257" x2="280.01599884033203" y2="14.884999990463257" fill="rgb(0, 0, 0)" stroke="rgb(60, 60, 60)" stroke-width="1px" opacity="0.25"></line><line x1="0" y1="0" x2="280.01599884033203" y2="0" fill="rgb(0, 0, 0)" stroke="rgb(60, 60, 60)" stroke-width="1px" opacity="0.25"></line></g></g></g><g><g><line x1="0" y1="1503.384999036789" x2="280.01599884033203" y2="1503.384999036789" fill="rgb(0, 0, 0)" stroke="rgb(153, 153, 153)" stroke-width="1.5px"></line></g></g><g><g><line x1="20.00114277430943" y1="0" x2="20.00114277430943" y2="178.61999988555908" fill="rgb(0, 0, 0)" stroke="rgb(153, 153, 153)" stroke-width="1.5px"></line></g></g><g><g><g><g><g><path style="fill: none;" stroke="rgb(238, 51, 119)" stroke-width="2px" d="M20.00114277430943,212.57640611380324L24.001371329171317,167.51441660430265L28.001599884033205,152.53327977414025L32.00182843889509,122.40961407171577L36.00205699375697,107.04466314091596L40.00228554861886,103.50697949568305L44.00251410348075,89.05068433803999L48.00274265834263,76.85553052851722L52.002971213204525,69.67086512360056L56.00319976806641,70.08654671913423L60.003428322928286,72.20171257618533L64.00365687779018,84.6540013437576L68.00388543265207,79.9981323995728L72.00411398751395,77.2085058535036L76.00434254237584,69.95164312451455L80.00457109723772,63.73855267738077L84.0047996520996,60.94227617796358L88.0050282069615,67.63849035181256L92.00525676182338,66.07354713797481L96.00548531668527,61.41327747971599L100.00571387154716,58.617224734732105L104.00594242640905,56.009286305915595L108.00617098127093,56.305192008141475L112.00639953613282,61.13431847188279L116.00662809099471,60.31054042140737L120.00685664585657,62.607210251337136L124.00708520071846,62.124575641094594L128.00731375558036,61.83499519109155L132.00754231044223,61.66124703490058L136.00777086530414,63.41763069002441L140.00799942016602,58.88956360459842L144.0082279750279,55.24242535974028L148.0084565298898,53.98444094697918L152.00868508475168,52.29935200715248L156.00891363961355,61.52172214807638L160.00914219447543,54.03079029833499L164.00937074933734,52.32716165570244L168.0095993041992,52.23528278428674L172.00982785906112,48.458926748912376L176.010056413923,48.984043537293985L180.0102849687849,42.786919011101844L184.01051352364675,43.72020679782585L188.01074207850863,45.21051326240857L192.01097063337053,42.383432947180125L196.0111991882324,46.26904555991831L200.01142774309432,50.461045223947764L204.0116562979562,56.69750921539554L208.0118848528181,53.92719301641971L212.01211340767995,58.77719789071048L216.01234196254185,57.96593662215503L220.01257051740373,59.339811957564365L224.01279907226564,58.30350506227079L228.0130276271275,56.751422621133216L232.01325618198942,63.26266605397102L236.0134847368513,63.448147920608974L240.01371329171315,56.11694414307799L244.01394184657505,57.30011816614967L248.01417040143693,52.42812629040479L252.01439895629883,52.295861565449115L256.0146275111607,48.49527402602337" fill="none"></path></g><g><path style="fill: none;" stroke="rgb(51, 187, 238)" stroke-width="2px" d="M28.001599884033205,181.35399635083812L32.00182843889509,155.08687321843576L36.00205699375697,135.4347411476329L40.00228554861886,119.98526993916268L44.00251410348075,107.17036701327089L48.00274265834263,96.4978391206759L52.002971213204525,91.52590606230117L56.00319976806641,82.02319802193792L60.003428322928286,82.33415489981124L64.00365687779018,80.84182255203261L68.00388543265207,77.34019913227229L72.00411398751395,73.3800630195299L76.00434254237584,67.28298922244427L80.00457109723772,69.02389686839116L84.0047996520996,68.9515730222921L88.0050282069615,68.72210089295108L92.00525676182338,63.18830967109986L96.00548531668527,58.565771316632095L100.00571387154716,56.16446266230979L104.00594242640905,55.095849598865286L108.00617098127093,52.96618042792285L112.00639953613282,54.479333314384505L116.00662809099471,52.22414754729037L120.00685664585657,51.243174342257916L124.00708520071846,50.2824575922881L128.00731375558036,48.40359555080357L132.00754231044223,47.834479545557116L136.00777086530414,49.35364258447984L140.00799942016602,49.52087306011481L144.0082279750279,49.24907778465527L148.0084565298898,47.22536844784574L152.00868508475168,42.47598086038167L156.00891363961355,45.20820929192908L160.00914219447543,46.289346039499605L164.00937074933734,46.93802808090473L168.0095993041992,44.35024013312059L172.00982785906112,42.053335823493285L176.010056413923,39.930926205943365L180.0102849687849,40.14597901792527L184.01051352364675,37.670147061773065L188.01074207850863,38.23134674447752L192.01097063337053,38.38199979545078L196.0111991882324,36.797826287828656L200.01142774309432,36.77762048738049L204.0116562979562,37.88189755823484L208.0118848528181,35.753497911561965L212.01211340767995,37.26742401272301L216.01234196254185,38.54787770183057L220.01257051740373,39.31614991528872L224.01279907226564,37.9165166354324L228.0130276271275,36.33246963346596L232.01325618198942,35.94024170782879L236.0134847368513,35.146704676906154L240.01371329171315,36.531214554882325L244.01394184657505,34.012789805635975L248.01417040143693,31.757503410640084L252.01439895629883,32.63706169859336L256.0146275111607,30.745999787901525" fill="none"></path></g></g></g></g><g opacity="0.2"><g><g><g><path style="fill: none;" stroke="rgb(238, 51, 119)" stroke-width="2px" d="M20.00114277430943,212.57640611380342L24.001371329171317,140.4772228986025L28.001599884033205,138.15138841718436L32.00182843889509,86.98418320566418L36.00205699375697,86.98418320566418L40.00228554861886,98.61308944821361L44.00251410348075,68.37795096188785L48.00274265834263,59.07487920075654L52.002971213204525,59.07487920075654L56.00319976806641,70.70378544330596L60.003428322928286,75.35527696311478L64.00365687779018,103.26466968953612L68.00388543265207,73.02953120321037L72.00411398751395,73.02953120321037L76.00434254237584,59.07487920075654L80.00457109723772,54.423298959434035L84.0047996520996,56.74904471933844L88.0050282069615,77.68111144453287L92.00525676182338,63.726370720565356L96.00548531668527,54.423298959434035L100.00571387154716,54.423298959434035L104.00594242640905,52.09746447801592L108.00617098127093,56.74904471933844L112.00639953613282,68.37795096188785L116.00662809099471,59.07487920075654L120.00685664585657,66.05220520198344L124.00708520071846,61.40062496066095L128.00731375558036,61.40062496066095L132.00754231044223,61.40062496066095L136.00777086530414,66.05220520198344L140.00799942016602,52.09746447801592L144.0082279750279,49.771718718111515L148.0084565298898,52.09746447801592L152.00868508475168,49.771718718111515L156.00891363961355,75.35527696311478L160.00914219447543,42.79439271688463L164.00937074933734,49.771718718111515L168.0095993041992,52.09746447801592L172.00982785906112,42.79439271688463L176.010056413923,49.771718718111515L180.0102849687849,33.49123223423959L184.01051352364675,45.12013847678904L188.01074207850863,47.44597295820711L192.01097063337053,38.142812475562096L196.0111991882324,52.09746447801592L200.01142774309432,56.74904471933844L204.0116562979562,66.05220520198344L208.0118848528181,49.771718718111515L212.01211340767995,66.05220520198344L216.01234196254185,56.74904471933844L220.01257051740373,61.40062496066095L224.01279907226564,56.74904471933844L228.0130276271275,54.423298959434035L232.01325618198942,73.02953120321037L236.0134847368513,63.726370720565356L240.01371329171315,45.12013847678904L244.01394184657505,59.07487920075654L248.01417040143693,45.12013847678904L252.01439895629883,52.09746447801592L256.0146275111607,42.79439271688463" fill="none"></path></g><g><path style="fill: none;" stroke="rgb(51, 187, 238)" stroke-width="2px" d="M20.00114277430943,365.6128548520803L24.001371329171317,166.06078114360574L28.001599884033205,124.19673641473055L32.00182843889509,124.19673641473055L36.00205699375697,109.7769175159931L40.00228554861886,98.61308944821361L44.00251410348075,88.84485079079867L48.00274265834263,80.9371909970045L52.002971213204525,84.19327054947617L56.00319976806641,67.91278406560424L60.003428322928286,82.79776986062531L64.00365687779018,78.6114452371001L68.00388543265207,72.09919741064311L72.00411398751395,67.44761716932062L76.00434254237584,58.1445454081893L80.00457109723772,71.63403051435951L84.0047996520996,68.84311785817148L88.0050282069615,68.37795096188785L92.00525676182338,54.88846585571764L96.00548531668527,51.63238630324601L100.00571387154716,52.562631374299556L104.00594242640905,53.49296516686678L108.00617098127093,49.771718718111515L112.00639953613282,56.74904471933844L116.00662809099471,48.841384925544304L120.00685664585657,49.771718718111515L124.00708520071846,48.841384925544304L128.00731375558036,45.58530537307263L132.00754231044223,46.98080606192349L136.00777086530414,51.63238630324601L140.00799942016602,49.771718718111515L144.0082279750279,48.841384925544304L148.0084565298898,44.18980468422177L152.00868508475168,35.3518998193741L156.00891363961355,49.306551821827895L160.00914219447543,47.911051132977036L164.00937074933734,47.911051132977036L168.0095993041992,40.4685582354665L172.00982785906112,38.607979371845715L176.010056413923,36.747311786711236L180.0102849687849,40.4685582354665L184.01051352364675,33.95639913052324L188.01074207850863,39.07314626812936L192.01097063337053,38.607979371845715L196.0111991882324,34.42156602680683L200.01142774309432,36.747311786711236L204.0116562979562,39.538313164412955L208.0118848528181,32.56089844167238L212.01211340767995,39.538313164412955L216.01234196254185,40.4685582354665L220.01257051740373,40.4685582354665L224.01279907226564,35.81706671565769L228.0130276271275,33.95639913052324L232.01325618198942,35.3518998193741L236.0134847368513,33.95639913052324L240.01371329171315,38.607979371845715L244.01394184657505,30.23515268176797L248.01417040143693,28.374573818147155L252.01439895629883,33.95639913052324L256.0146275111607,27.909406921863564" fill="none"></path></g></g></g></g></g></g><g transform="translate(49, 178)" clip-path="url(#clip_1)"><clipPath id="clip_1"><rect width="280" height="21"></rect></clipPath><g><g><line x1="0" y1="0" x2="0" y2="5" style="visibility: inherit;" fill="rgb(0, 0, 0)" stroke="rgb(204, 204, 204)" stroke-width="1px"></line><line x1="20.00114277430943" y1="0" x2="20.00114277430943" y2="5" style="visibility: inherit;" fill="rgb(0, 0, 0)" stroke="rgb(204, 204, 204)" stroke-width="1px"></line><line x1="40.00228554861886" y1="0" x2="40.00228554861886" y2="5" style="visibility: inherit;" fill="rgb(0, 0, 0)" stroke="rgb(204, 204, 204)" stroke-width="1px"></line><line x1="60.003428322928286" y1="0" x2="60.003428322928286" y2="5" style="visibility: inherit;" fill="rgb(0, 0, 0)" stroke="rgb(204, 204, 204)" stroke-width="1px"></line><line x1="80.00457109723772" y1="0" x2="80.00457109723772" y2="5" style="visibility: inherit;" fill="rgb(0, 0, 0)" stroke="rgb(204, 204, 204)" stroke-width="1px"></line><line x1="100.00571387154716" y1="0" x2="100.00571387154716" y2="5" style="visibility: inherit;" fill="rgb(0, 0, 0)" stroke="rgb(204, 204, 204)" stroke-width="1px"></line><line x1="120.00685664585657" y1="0" x2="120.00685664585657" y2="5" style="visibility: inherit;" fill="rgb(0, 0, 0)" stroke="rgb(204, 204, 204)" stroke-width="1px"></line><line x1="140.00799942016602" y1="0" x2="140.00799942016602" y2="5" style="visibility: inherit;" fill="rgb(0, 0, 0)" stroke="rgb(204, 204, 204)" stroke-width="1px"></line><line x1="160.00914219447543" y1="0" x2="160.00914219447543" y2="5" style="visibility: inherit;" fill="rgb(0, 0, 0)" stroke="rgb(204, 204, 204)" stroke-width="1px"></line><line x1="180.0102849687849" y1="0" x2="180.0102849687849" y2="5" style="visibility: inherit;" fill="rgb(0, 0, 0)" stroke="rgb(204, 204, 204)" stroke-width="1px"></line><line x1="200.01142774309432" y1="0" x2="200.01142774309432" y2="5" style="visibility: inherit;" fill="rgb(0, 0, 0)" stroke="rgb(204, 204, 204)" stroke-width="1px"></line><line x1="220.01257051740373" y1="0" x2="220.01257051740373" y2="5" style="visibility: inherit;" fill="rgb(0, 0, 0)" stroke="rgb(204, 204, 204)" stroke-width="1px"></line><line x1="240.01371329171315" y1="0" x2="240.01371329171315" y2="5" style="visibility: inherit;" fill="rgb(0, 0, 0)" stroke="rgb(204, 204, 204)" stroke-width="1px"></line><line x1="260.0148560660226" y1="0" x2="260.0148560660226" y2="5" style="visibility: inherit;" fill="rgb(0, 0, 0)" stroke="rgb(204, 204, 204)" stroke-width="1px"></line><line x1="280.01599884033203" y1="0" x2="280.01599884033203" y2="5" style="visibility: inherit;" fill="rgb(0, 0, 0)" stroke="rgb(204, 204, 204)" stroke-width="1px"></line></g><g transform="translate(0, 8)"><text style="text-anchor: middle; visibility: hidden; font-family: &quot;Helvetica Neue&quot;, sans-serif; font-size: 12px; font-weight: 200;" x="0" y="0" dx="0em" dy="0.95em" fill="rgb(50, 49, 63)" stroke="none" stroke-width="1px">-5</text><text style="text-anchor: middle; visibility: hidden; font-family: &quot;Helvetica Neue&quot;, sans-serif; font-size: 12px; font-weight: 200;" x="20.00114277430943" y="0" dx="0em" dy="0.95em" fill="rgb(50, 49, 63)" stroke="none" stroke-width="1px">0</text><text style="text-anchor: middle; visibility: hidden; font-family: &quot;Helvetica Neue&quot;, sans-serif; font-size: 12px; font-weight: 200;" x="40.00228554861886" y="0" dx="0em" dy="0.95em" fill="rgb(50, 49, 63)" stroke="none" stroke-width="1px">5</text><text style="text-anchor: middle; visibility: hidden; font-family: &quot;Helvetica Neue&quot;, sans-serif; font-size: 12px; font-weight: 200;" x="60.003428322928286" y="0" dx="0em" dy="0.95em" fill="rgb(50, 49, 63)" stroke="none" stroke-width="1px">10</text><text style="text-anchor: middle; visibility: hidden; font-family: &quot;Helvetica Neue&quot;, sans-serif; font-size: 12px; font-weight: 200;" x="80.00457109723772" y="0" dx="0em" dy="0.95em" fill="rgb(50, 49, 63)" stroke="none" stroke-width="1px">15</text><text style="text-anchor: middle; visibility: hidden; font-family: &quot;Helvetica Neue&quot;, sans-serif; font-size: 12px; font-weight: 200;" x="100.00571387154716" y="0" dx="0em" dy="0.95em" fill="rgb(50, 49, 63)" stroke="none" stroke-width="1px">20</text><text style="text-anchor: middle; visibility: hidden; font-family: &quot;Helvetica Neue&quot;, sans-serif; font-size: 12px; font-weight: 200;" x="120.00685664585657" y="0" dx="0em" dy="0.95em" fill="rgb(50, 49, 63)" stroke="none" stroke-width="1px">25</text><text style="text-anchor: middle; visibility: hidden; font-family: &quot;Helvetica Neue&quot;, sans-serif; font-size: 12px; font-weight: 200;" x="140.00799942016602" y="0" dx="0em" dy="0.95em" fill="rgb(50, 49, 63)" stroke="none" stroke-width="1px">30</text><text style="text-anchor: middle; visibility: hidden; font-family: &quot;Helvetica Neue&quot;, sans-serif; font-size: 12px; font-weight: 200;" x="160.00914219447543" y="0" dx="0em" dy="0.95em" fill="rgb(50, 49, 63)" stroke="none" stroke-width="1px">35</text><text style="text-anchor: middle; visibility: hidden; font-family: &quot;Helvetica Neue&quot;, sans-serif; font-size: 12px; font-weight: 200;" x="180.0102849687849" y="0" dx="0em" dy="0.95em" fill="rgb(50, 49, 63)" stroke="none" stroke-width="1px">40</text><text style="text-anchor: middle; visibility: hidden; font-family: &quot;Helvetica Neue&quot;, sans-serif; font-size: 12px; font-weight: 200;" x="200.01142774309432" y="0" dx="0em" dy="0.95em" fill="rgb(50, 49, 63)" stroke="none" stroke-width="1px">45</text><text style="text-anchor: middle; visibility: hidden; font-family: &quot;Helvetica Neue&quot;, sans-serif; font-size: 12px; font-weight: 200;" x="220.01257051740373" y="0" dx="0em" dy="0.95em" fill="rgb(50, 49, 63)" stroke="none" stroke-width="1px">50</text><text style="text-anchor: middle; visibility: hidden; font-family: &quot;Helvetica Neue&quot;, sans-serif; font-size: 12px; font-weight: 200;" x="240.01371329171315" y="0" dx="0em" dy="0.95em" fill="rgb(50, 49, 63)" stroke="none" stroke-width="1px">55</text><text style="text-anchor: middle; visibility: hidden; font-family: &quot;Helvetica Neue&quot;, sans-serif; font-size: 12px; font-weight: 200;" x="260.0148560660226" y="0" dx="0em" dy="0.95em" fill="rgb(50, 49, 63)" stroke="none" stroke-width="1px">60</text><text style="text-anchor: middle; visibility: hidden; font-family: &quot;Helvetica Neue&quot;, sans-serif; font-size: 12px; font-weight: 200;" x="280.01599884033203" y="0" dx="0em" dy="0.95em" fill="rgb(50, 49, 63)" stroke="none" stroke-width="1px">65</text></g><line x1="0" y1="0" x2="280.01599884033203" y2="0" fill="rgb(0, 0, 0)" stroke="rgb(204, 204, 204)" stroke-width="1px"></line></g></g></g></g></svg>