<svg viewBox="0 0 619.6666259765625 400" xmlns="http://www.w3.org/2000/svg"><g><g><g><g><g><line x1="59.98000144958496" y1="378.5599994659424" x2="54.98000144958496" y2="378.5599994659424" style="visibility: inherit;" fill="rgb(0, 0, 0)" stroke="rgb(204, 204, 204)" stroke-width="1px"></line><line x1="59.98000144958496" y1="351.51999950408936" x2="54.98000144958496" y2="351.51999950408936" style="visibility: inherit;" fill="rgb(0, 0, 0)" stroke="rgb(204, 204, 204)" stroke-width="1px"></line><line x1="59.98000144958496" y1="324.4799995422363" x2="54.98000144958496" y2="324.4799995422363" style="visibility: inherit;" fill="rgb(0, 0, 0)" stroke="rgb(204, 204, 204)" stroke-width="1px"></line><line x1="59.98000144958496" y1="297.4399995803833" x2="54.98000144958496" y2="297.4399995803833" style="visibility: inherit;" fill="rgb(0, 0, 0)" stroke="rgb(204, 204, 204)" stroke-width="1px"></line><line x1="59.98000144958496" y1="270.3999996185303" x2="54.98000144958496" y2="270.3999996185303" style="visibility: inherit;" fill="rgb(0, 0, 0)" stroke="rgb(204, 204, 204)" stroke-width="1px"></line><line x1="59.98000144958496" y1="243.35999965667725" x2="54.98000144958496" y2="243.35999965667725" style="visibility: inherit;" fill="rgb(0, 0, 0)" stroke="rgb(204, 204, 204)" stroke-width="1px"></line><line x1="59.98000144958496" y1="216.31999969482422" x2="54.98000144958496" y2="216.31999969482422" style="visibility: inherit;" fill="rgb(0, 0, 0)" stroke="rgb(204, 204, 204)" stroke-width="1px"></line><line x1="59.98000144958496" y1="189.2799997329712" x2="54.98000144958496" y2="189.2799997329712" style="visibility: inherit;" fill="rgb(0, 0, 0)" stroke="rgb(204, 204, 204)" stroke-width="1px"></line><line x1="59.98000144958496" y1="162.23999977111816" x2="54.98000144958496" y2="162.23999977111816" style="visibility: inherit;" fill="rgb(0, 0, 0)" stroke="rgb(204, 204, 204)" stroke-width="1px"></line><line x1="59.98000144958496" y1="135.1999998092651" x2="54.98000144958496" y2="135.1999998092651" style="visibility: inherit;" fill="rgb(0, 0, 0)" stroke="rgb(204, 204, 204)" stroke-width="1px"></line><line x1="59.98000144958496" y1="108.15999984741211" x2="54.98000144958496" y2="108.15999984741211" style="visibility: inherit;" fill="rgb(0, 0, 0)" stroke="rgb(204, 204, 204)" stroke-width="1px"></line><line x1="59.98000144958496" y1="81.11999988555908" x2="54.98000144958496" y2="81.11999988555908" style="visibility: inherit;" fill="rgb(0, 0, 0)" stroke="rgb(204, 204, 204)" stroke-width="1px"></line><line x1="59.98000144958496" y1="54.079999923706055" x2="54.98000144958496" y2="54.079999923706055" style="visibility: inherit;" fill="rgb(0, 0, 0)" stroke="rgb(204, 204, 204)" stroke-width="1px"></line><line x1="59.98000144958496" y1="27.039999961853027" x2="54.98000144958496" y2="27.039999961853027" style="visibility: inherit;" fill="rgb(0, 0, 0)" stroke="rgb(204, 204, 204)" stroke-width="1px"></line><line x1="59.98000144958496" y1="0" x2="54.98000144958496" y2="0" style="visibility: inherit;" fill="rgb(0, 0, 0)" stroke="rgb(204, 204, 204)" stroke-width="1px"></line></g><g transform="translate(49.98000144958496, 0)"><text style="text-anchor: end; visibility: hidden; font-family: &quot;Helvetica Neue&quot;, sans-serif; font-size: 12px; font-weight: 200;" x="0" y="378.5599994659424" dx="0em" dy="0.3em" fill="rgb(50, 49, 63)" stroke="none" stroke-width="1px">0.974</text><text style="text-anchor: end; visibility: inherit; font-family: &quot;Helvetica Neue&quot;, sans-serif; font-size: 12px; font-weight: 200;" x="0" y="351.51999950408936" dx="0em" dy="0.3em" fill="rgb(50, 49, 63)" stroke="none" stroke-width="1px">0.976</text><text style="text-anchor: end; visibility: inherit; font-family: &quot;Helvetica Neue&quot;, sans-serif; font-size: 12px; font-weight: 200;" x="0" y="324.4799995422363" dx="0em" dy="0.3em" fill="rgb(50, 49, 63)" stroke="none" stroke-width="1px">0.978</text><text style="text-anchor: end; visibility: inherit; font-family: &quot;Helvetica Neue&quot;, sans-serif; font-size: 12px; font-weight: 200;" x="0" y="297.4399995803833" dx="0em" dy="0.3em" fill="rgb(50, 49, 63)" stroke="none" stroke-width="1px">0.98</text><text style="text-anchor: end; visibility: inherit; font-family: &quot;Helvetica Neue&quot;, sans-serif; font-size: 12px; font-weight: 200;" x="0" y="270.3999996185303" dx="0em" dy="0.3em" fill="rgb(50, 49, 63)" stroke="none" stroke-width="1px">0.982</text><text style="text-anchor: end; visibility: inherit; font-family: &quot;Helvetica Neue&quot;, sans-serif; font-size: 12px; font-weight: 200;" x="0" y="243.35999965667725" dx="0em" dy="0.3em" fill="rgb(50, 49, 63)" stroke="none" stroke-width="1px">0.984</text><text style="text-anchor: end; visibility: inherit; font-family: &quot;Helvetica Neue&quot;, sans-serif; font-size: 12px; font-weight: 200;" x="0" y="216.31999969482422" dx="0em" dy="0.3em" fill="rgb(50, 49, 63)" stroke="none" stroke-width="1px">0.986</text><text style="text-anchor: end; visibility: inherit; font-family: &quot;Helvetica Neue&quot;, sans-serif; font-size: 12px; font-weight: 200;" x="0" y="189.2799997329712" dx="0em" dy="0.3em" fill="rgb(50, 49, 63)" stroke="none" stroke-width="1px">0.988</text><text style="text-anchor: end; visibility: inherit; font-family: &quot;Helvetica Neue&quot;, sans-serif; font-size: 12px; font-weight: 200;" x="0" y="162.23999977111816" dx="0em" dy="0.3em" fill="rgb(50, 49, 63)" stroke="none" stroke-width="1px">0.99</text><text style="text-anchor: end; visibility: inherit; font-family: &quot;Helvetica Neue&quot;, sans-serif; font-size: 12px; font-weight: 200;" x="0" y="135.1999998092651" dx="0em" dy="0.3em" fill="rgb(50, 49, 63)" stroke="none" stroke-width="1px">0.992</text><text style="text-anchor: end; visibility: inherit; font-family: &quot;Helvetica Neue&quot;, sans-serif; font-size: 12px; font-weight: 200;" x="0" y="108.15999984741211" dx="0em" dy="0.3em" fill="rgb(50, 49, 63)" stroke="none" stroke-width="1px">0.994</text><text style="text-anchor: end; visibility: inherit; font-family: &quot;Helvetica Neue&quot;, sans-serif; font-size: 12px; font-weight: 200;" x="0" y="81.11999988555908" dx="0em" dy="0.3em" fill="rgb(50, 49, 63)" stroke="none" stroke-width="1px">0.996</text><text style="text-anchor: end; visibility: inherit; font-family: &quot;Helvetica Neue&quot;, sans-serif; font-size: 12px; font-weight: 200;" x="0" y="54.079999923706055" dx="0em" dy="0.3em" fill="rgb(50, 49, 63)" stroke="none" stroke-width="1px">0.998</text><text style="text-anchor: end; visibility: inherit; font-family: &quot;Helvetica Neue&quot;, sans-serif; font-size: 12px; font-weight: 200;" x="0" y="27.039999961853027" dx="0em" dy="0.3em" fill="rgb(50, 49, 63)" stroke="none" stroke-width="1px">1</text><text style="text-anchor: end; visibility: hidden; font-family: &quot;Helvetica Neue&quot;, sans-serif; font-size: 12px; font-weight: 200;" x="0" y="0" dx="0em" dy="0.3em" fill="rgb(50, 49, 63)" stroke="none" stroke-width="1px">1</text></g><line x1="59.98000144958496" y1="0" x2="59.98000144958496" y2="378.5599994659424" fill="rgb(0, 0, 0)" stroke="rgb(204, 204, 204)" stroke-width="1px"></line></g></g><g transform="translate(59, 0)" clip-path="url(#clip_0)"><clipPath id="clip_0"><rect width="559" height="378"></rect></clipPath><g><g><g><line x1="0" y1="0" x2="0" y2="378.5599994659424" fill="rgb(0, 0, 0)" stroke="rgb(60, 60, 60)" stroke-width="1px" opacity="0.25"></line><line x1="39.977642753601074" y1="0" x2="39.977642753601074" y2="378.5599994659424" fill="rgb(0, 0, 0)" stroke="rgb(60, 60, 60)" stroke-width="1px" opacity="0.25"></line><line x1="79.95528550720215" y1="0" x2="79.95528550720215" y2="378.5599994659424" fill="rgb(0, 0, 0)" stroke="rgb(60, 60, 60)" stroke-width="1px" opacity="0.25"></line><line x1="119.93292826080322" y1="0" x2="119.93292826080322" y2="378.5599994659424" fill="rgb(0, 0, 0)" stroke="rgb(60, 60, 60)" stroke-width="1px" opacity="0.25"></line><line x1="159.9105710144043" y1="0" x2="159.9105710144043" y2="378.5599994659424" fill="rgb(0, 0, 0)" stroke="rgb(60, 60, 60)" stroke-width="1px" opacity="0.25"></line><line x1="199.8882137680054" y1="0" x2="199.8882137680054" y2="378.5599994659424" fill="rgb(0, 0, 0)" stroke="rgb(60, 60, 60)" stroke-width="1px" opacity="0.25"></line><line x1="239.86585652160645" y1="0" x2="239.86585652160645" y2="378.5599994659424" fill="rgb(0, 0, 0)" stroke="rgb(60, 60, 60)" stroke-width="1px" opacity="0.25"></line><line x1="279.84349927520753" y1="0" x2="279.84349927520753" y2="378.5599994659424" fill="rgb(0, 0, 0)" stroke="rgb(60, 60, 60)" stroke-width="1px" opacity="0.25"></line><line x1="319.8211420288086" y1="0" x2="319.8211420288086" y2="378.5599994659424" fill="rgb(0, 0, 0)" stroke="rgb(60, 60, 60)" stroke-width="1px" opacity="0.25"></line><line x1="359.7987847824097" y1="0" x2="359.7987847824097" y2="378.5599994659424" fill="rgb(0, 0, 0)" stroke="rgb(60, 60, 60)" stroke-width="1px" opacity="0.25"></line><line x1="399.7764275360108" y1="0" x2="399.7764275360108" y2="378.5599994659424" fill="rgb(0, 0, 0)" stroke="rgb(60, 60, 60)" stroke-width="1px" opacity="0.25"></line><line x1="439.75407028961183" y1="0" x2="439.75407028961183" y2="378.5599994659424" fill="rgb(0, 0, 0)" stroke="rgb(60, 60, 60)" stroke-width="1px" opacity="0.25"></line><line x1="479.7317130432129" y1="0" x2="479.7317130432129" y2="378.5599994659424" fill="rgb(0, 0, 0)" stroke="rgb(60, 60, 60)" stroke-width="1px" opacity="0.25"></line><line x1="519.7093557968141" y1="0" x2="519.7093557968141" y2="378.5599994659424" fill="rgb(0, 0, 0)" stroke="rgb(60, 60, 60)" stroke-width="1px" opacity="0.25"></line><line x1="559.6869985504151" y1="0" x2="559.6869985504151" y2="378.5599994659424" fill="rgb(0, 0, 0)" stroke="rgb(60, 60, 60)" stroke-width="1px" opacity="0.25"></line></g><g><line x1="0" y1="378.5599994659424" x2="559.6869985504151" y2="378.5599994659424" fill="rgb(0, 0, 0)" stroke="rgb(60, 60, 60)" stroke-width="1px" opacity="0.25"></line><line x1="0" y1="351.51999950408936" x2="559.6869985504151" y2="351.51999950408936" fill="rgb(0, 0, 0)" stroke="rgb(60, 60, 60)" stroke-width="1px" opacity="0.25"></line><line x1="0" y1="324.4799995422363" x2="559.6869985504151" y2="324.4799995422363" fill="rgb(0, 0, 0)" stroke="rgb(60, 60, 60)" stroke-width="1px" opacity="0.25"></line><line x1="0" y1="297.4399995803833" x2="559.6869985504151" y2="297.4399995803833" fill="rgb(0, 0, 0)" stroke="rgb(60, 60, 60)" stroke-width="1px" opacity="0.25"></line><line x1="0" y1="270.3999996185303" x2="559.6869985504151" y2="270.3999996185303" fill="rgb(0, 0, 0)" stroke="rgb(60, 60, 60)" stroke-width="1px" opacity="0.25"></line><line x1="0" y1="243.35999965667725" x2="559.6869985504151" y2="243.35999965667725" fill="rgb(0, 0, 0)" stroke="rgb(60, 60, 60)" stroke-width="1px" opacity="0.25"></line><line x1="0" y1="216.31999969482422" x2="559.6869985504151" y2="216.31999969482422" fill="rgb(0, 0, 0)" stroke="rgb(60, 60, 60)" stroke-width="1px" opacity="0.25"></line><line x1="0" y1="189.2799997329712" x2="559.6869985504151" y2="189.2799997329712" fill="rgb(0, 0, 0)" stroke="rgb(60, 60, 60)" stroke-width="1px" opacity="0.25"></line><line x1="0" y1="162.23999977111816" x2="559.6869985504151" y2="162.23999977111816" fill="rgb(0, 0, 0)" stroke="rgb(60, 60, 60)" stroke-width="1px" opacity="0.25"></line><line x1="0" y1="135.1999998092651" x2="559.6869985504151" y2="135.1999998092651" fill="rgb(0, 0, 0)" stroke="rgb(60, 60, 60)" stroke-width="1px" opacity="0.25"></line><line x1="0" y1="108.15999984741211" x2="559.6869985504151" y2="108.15999984741211" fill="rgb(0, 0, 0)" stroke="rgb(60, 60, 60)" stroke-width="1px" opacity="0.25"></line><line x1="0" y1="81.11999988555908" x2="559.6869985504151" y2="81.11999988555908" fill="rgb(0, 0, 0)" stroke="rgb(60, 60, 60)" stroke-width="1px" opacity="0.25"></line><line x1="0" y1="54.079999923706055" x2="559.6869985504151" y2="54.079999923706055" fill="rgb(0, 0, 0)" stroke="rgb(60, 60, 60)" stroke-width="1px" opacity="0.25"></line><line x1="0" y1="27.039999961853027" x2="559.6869985504151" y2="27.039999961853027" fill="rgb(0, 0, 0)" stroke="rgb(60, 60, 60)" stroke-width="1px" opacity="0.25"></line><line x1="0" y1="0" x2="559.6869985504151" y2="0" fill="rgb(0, 0, 0)" stroke="rgb(60, 60, 60)" stroke-width="1px" opacity="0.25"></line></g></g></g><g><g><line x1="0" y1="13547.039980888356" x2="559.6869985504151" y2="13547.039980888356" fill="rgb(0, 0, 0)" stroke="rgb(153, 153, 153)" stroke-width="1.5px"></line></g></g><g><g><line x1="39.977642753601074" y1="0" x2="39.977642753601074" y2="378.5599994659424" fill="rgb(0, 0, 0)" stroke="rgb(153, 153, 153)" stroke-width="1.5px"></line></g></g><g><g><g><g><g><path style="fill: none;" stroke="rgb(0, 119, 187)" stroke-width="2px" d="M39.977642753601074,428.4153217375255L47.97317130432129,322.78991895913913L55.96869985504151,247.34361383927123L63.96422840576172,223.7665112258549L71.95975695648193,220.90340002256403L79.95528550720215,237.06179710464346L87.95081405792237,194.10043500176062L95.94634260864258,186.29522786279557L103.9418711593628,156.08885494800518L111.93739971008301,172.16646354087734L119.93292826080322,130.8661060727985L127.92845681152345,140.05553801325223L135.92398536224366,94.7902031238404L143.91951391296385,101.49550530213065L151.91504246368407,105.51532211260928L159.9105710144043,141.7353467555925L167.90609956512452,121.20366820664498L175.90162811584474,125.78866650135359L183.89715666656494,103.18788712959088L191.89268521728516,106.52898330734888L199.8882137680054,108.53356283259762L207.8837423187256,101.28597778620349L215.87927086944583,96.93748781097725L223.87479942016603,85.87850471419017L231.87032797088625,96.1432608853367L239.86585652160645,85.40200263786085L247.86138507232667,95.85734115747869L255.8569136230469,85.23046259786395L263.8524421737671,70.40414313191837L271.8479707244873,95.3084913099895L279.84349927520753,110.25109669318442L287.8390278259277,93.86672114121666L295.834556376648,134.73597005730707L303.83008492736815,91.65758078488017L311.8256134780884,82.71061274640567L319.8211420288086,85.79230316022404L327.8166705795288,79.19144628456536L335.81219913024904,100.58086777529843L343.80772768096926,88.06458506657731L351.8032562316895,97.45487992632366L359.7987847824097,94.63886343412929L367.7943133331299,101.39944693755723L375.7898418838501,97.005603641861L383.7853704345703,111.2693621127226L391.78089898529055,94.47768169517184L399.7764275360108,101.30273789135543L407.77195608673094,113.84764266041867L415.7674846374512,96.02465002513406L423.7630131881714,85.33085444421846L431.75854173889167,78.91457709576127L439.75407028961183,83.51468173807399L447.74959884033206,60.92480902752078L455.7451273910523,72.72082089712666L463.7406559417725,62.89836357431926L471.7361844924927,57.00488918064144L479.7317130432129,70.36886898898348L487.7272415939331,69.93738582267252L495.72277014465334,69.67849592288712L503.71829869537356,86.42322642755806L511.7138272460938,79.57000028581905" fill="none"></path></g><g><path style="fill: none;" stroke="rgb(255, 112, 67)" stroke-width="2px" d="M63.96422840576172,421.3631323552726L71.95975695648193,325.46696775335437L79.95528550720215,260.5263362391171L87.95081405792237,221.81820892302187L95.94634260864258,173.51567986386533L103.9418711593628,165.54495232573947L111.93739971008301,157.41392212620792L119.93292826080322,157.6551380551073L127.92845681152345,147.63727605315097L135.92398536224366,133.17961179280573L143.91951391296385,127.89951325980473L151.91504246368407,131.497438249972L159.9105710144043,126.8930478900538L167.90609956512452,132.58286911312194L175.90162811584474,147.82729538217734L183.89715666656494,128.24119656918626L191.89268521728516,118.18040161943827L199.8882137680054,100.31395214417279L207.8837423187256,109.87441969085057L215.87927086944583,105.47062987433833L223.87479942016603,97.75823818229998L231.87032797088625,108.34089556402267L239.86585652160645,89.34049199918894L247.86138507232667,77.94027060348583L255.8569136230469,88.00022005638249L263.8524421737671,77.13611510287046L271.8479707244873,80.75756666427861L279.84349927520753,72.79052601377475L287.8390278259277,73.08041873926669L295.834556376648,69.8742768410973L303.83008492736815,84.85065672892887L311.8256134780884,90.45640697160968L319.8211420288086,97.19993444770046L327.8166705795288,96.17593482152432L335.81219913024904,78.66147054257931L343.80772768096926,79.98274045179556L351.8032562316895,72.32563133283224L359.7987847824097,84.63143032610316L367.7943133331299,80.184961301449L375.7898418838501,80.8968349043771L383.7853704345703,76.25416537110505L391.78089898529055,63.328653920645536L399.7764275360108,55.573347051230826L407.77195608673094,66.1298663544377L415.7674846374512,67.39398424197299L423.7630131881714,66.46241629580817L431.75854173889167,57.453604476737894L439.75407028961183,53.73803372207789L447.74959884033206,54.888768626596175L455.7451273910523,60.649325605250056L463.7406559417725,70.86549216511128L471.7361844924927,71.92539840699612L479.7317130432129,67.49122611618537L487.7272415939331,63.14068406305495L495.72277014465334,68.98055222440928L503.71829869537356,62.34424104934237L511.7138272460938,60.05249302295067" fill="none"></path></g></g></g></g><g opacity="0.2"><g><g><g><path style="fill: none;" stroke="rgb(0, 119, 187)" stroke-width="2px" d="M39.977642753601074,428.41532173752705L47.97317130432129,259.41467729210876L55.96869985504151,174.9151609241959L63.96422840576172,196.03983855247506L71.95975695648193,217.16532203555045L79.95528550720215,259.41467729210876L87.95081405792237,132.6649998128413L95.94634260864258,174.9151609241959L103.9418711593628,111.54032218456217L111.93739971008301,196.03983855247506L119.93292826080322,69.29016107320763L127.92845681152345,153.7896774411205L135.92398536224366,27.039999961853027L143.91951391296385,111.54032218456217L151.91504246368407,111.54032218456217L159.9105710144043,196.03983855247506L167.90609956512452,90.41483870148676L175.90162811584474,132.6649998128413L183.89715666656494,69.29016107320763L191.89268521728516,111.54032218456217L199.8882137680054,111.54032218456217L207.8837423187256,90.41483870148676L215.87927086944583,90.41483870148676L223.87479942016603,69.29016107320763L231.87032797088625,111.54032218456217L239.86585652160645,69.29016107320763L247.86138507232667,111.54032218456217L255.8569136230469,69.29016107320763L263.8524421737671,48.164677590132214L271.8479707244873,132.6649998128413L279.84349927520753,132.6649998128413L287.8390278259277,69.29016107320763L295.834556376648,196.03983855247506L303.83008492736815,27.039999961853027L311.8256134780884,69.29016107320763L319.8211420288086,90.41483870148676L327.8166705795288,69.29016107320763L335.81219913024904,132.6649998128413L343.80772768096926,69.29016107320763L351.8032562316895,111.54032218456217L359.7987847824097,90.41483870148676L367.7943133331299,111.54032218456217L375.7898418838501,90.41483870148676L383.7853704345703,132.6649998128413L391.78089898529055,69.29016107320763L399.7764275360108,111.54032218456217L407.77195608673094,132.6649998128413L415.7674846374512,69.29016107320763L423.7630131881714,69.29016107320763L431.75854173889167,69.29016107320763L439.75407028961183,90.41483870148676L447.74959884033206,27.039999961853027L455.7451273910523,90.41483870148676L463.7406559417725,48.164677590132214L471.7361844924927,48.164677590132214L479.7317130432129,90.41483870148676L487.7272415939331,69.29016107320763L495.72277014465334,69.29016107320763L503.71829869537356,111.54032218456217L511.7138272460938,69.29016107320763" fill="none"></path></g><g><path style="fill: none;" stroke="rgb(255, 112, 67)" stroke-width="2px" d="M39.977642753601074,1687.4651265561563L47.97317130432129,365.0396771430971L55.96869985504151,276.3150640785691L63.96422840576172,255.19038645028994L71.95975695648193,200.26493524909014L79.95528550720215,170.69006422758082L87.95081405792237,166.46496753096574L95.94634260864258,103.090128791332L103.9418711593628,153.7896774411205L111.93739971008301,145.34028990268655L119.93292826080322,158.01477413773557L127.92845681152345,132.6649998128413L135.92398536224366,111.54032218456217L143.91951391296385,119.98970972299611L151.91504246368407,136.89009650945638L159.9105710144043,119.98970972299611L167.90609956512452,141.11519320607147L175.90162811584474,170.69006422758082L183.89715666656494,98.86503209471692L191.89268521728516,103.090128791332L199.8882137680054,73.51525776982265L207.8837423187256,124.21480641961116L215.87927086944583,98.86503209471692L223.87479942016603,86.18974200487168L231.87032797088625,124.21480641961116L239.86585652160645,60.83996767997746L247.86138507232667,60.83996767997746L255.8569136230469,103.090128791332L263.8524421737671,60.83996767997746L271.8479707244873,86.18974200487168L279.84349927520753,60.83996767997746L287.8390278259277,73.51525776982265L295.834556376648,65.06506437659255L303.83008492736815,107.31522548794709L311.8256134780884,98.86503209471692L319.8211420288086,107.31522548794709L327.8166705795288,94.63993539810184L335.81219913024904,52.3897742867473L343.80772768096926,81.96464530825659L351.8032562316895,60.83996767997746L359.7987847824097,103.090128791332L367.7943133331299,73.51525776982265L375.7898418838501,81.96464530825659L383.7853704345703,69.29016107320763L391.78089898529055,43.94038674831336L399.7764275360108,43.94038674831336L407.77195608673094,81.96464530825659L415.7674846374512,69.29016107320763L423.7630131881714,65.06506437659255L431.75854173889167,43.94038674831336L439.75407028961183,48.164677590132214L447.74959884033206,56.61487098336238L455.7451273910523,69.29016107320763L463.7406559417725,86.18974200487168L471.7361844924927,73.51525776982265L479.7317130432129,60.83996767997746L487.7272415939331,56.61487098336238L495.72277014465334,77.74035446643774L503.71829869537356,52.3897742867473L511.7138272460938,56.61487098336238" fill="none"></path></g></g></g></g></g></g><g transform="translate(59, 378)" clip-path="url(#clip_1)"><clipPath id="clip_1"><rect width="559" height="21"></rect></clipPath><g><g><line x1="0" y1="0" x2="0" y2="5" style="visibility: inherit;" fill="rgb(0, 0, 0)" stroke="rgb(204, 204, 204)" stroke-width="1px"></line><line x1="39.977642753601074" y1="0" x2="39.977642753601074" y2="5" style="visibility: inherit;" fill="rgb(0, 0, 0)" stroke="rgb(204, 204, 204)" stroke-width="1px"></line><line x1="79.95528550720215" y1="0" x2="79.95528550720215" y2="5" style="visibility: inherit;" fill="rgb(0, 0, 0)" stroke="rgb(204, 204, 204)" stroke-width="1px"></line><line x1="119.93292826080322" y1="0" x2="119.93292826080322" y2="5" style="visibility: inherit;" fill="rgb(0, 0, 0)" stroke="rgb(204, 204, 204)" stroke-width="1px"></line><line x1="159.9105710144043" y1="0" x2="159.9105710144043" y2="5" style="visibility: inherit;" fill="rgb(0, 0, 0)" stroke="rgb(204, 204, 204)" stroke-width="1px"></line><line x1="199.8882137680054" y1="0" x2="199.8882137680054" y2="5" style="visibility: inherit;" fill="rgb(0, 0, 0)" stroke="rgb(204, 204, 204)" stroke-width="1px"></line><line x1="239.86585652160645" y1="0" x2="239.86585652160645" y2="5" style="visibility: inherit;" fill="rgb(0, 0, 0)" stroke="rgb(204, 204, 204)" stroke-width="1px"></line><line x1="279.84349927520753" y1="0" x2="279.84349927520753" y2="5" style="visibility: inherit;" fill="rgb(0, 0, 0)" stroke="rgb(204, 204, 204)" stroke-width="1px"></line><line x1="319.8211420288086" y1="0" x2="319.8211420288086" y2="5" style="visibility: inherit;" fill="rgb(0, 0, 0)" stroke="rgb(204, 204, 204)" stroke-width="1px"></line><line x1="359.7987847824097" y1="0" x2="359.7987847824097" y2="5" style="visibility: inherit;" fill="rgb(0, 0, 0)" stroke="rgb(204, 204, 204)" stroke-width="1px"></line><line x1="399.7764275360108" y1="0" x2="399.7764275360108" y2="5" style="visibility: inherit;" fill="rgb(0, 0, 0)" stroke="rgb(204, 204, 204)" stroke-width="1px"></line><line x1="439.75407028961183" y1="0" x2="439.75407028961183" y2="5" style="visibility: inherit;" fill="rgb(0, 0, 0)" stroke="rgb(204, 204, 204)" stroke-width="1px"></line><line x1="479.7317130432129" y1="0" x2="479.7317130432129" y2="5" style="visibility: inherit;" fill="rgb(0, 0, 0)" stroke="rgb(204, 204, 204)" stroke-width="1px"></line><line x1="519.7093557968141" y1="0" x2="519.7093557968141" y2="5" style="visibility: inherit;" fill="rgb(0, 0, 0)" stroke="rgb(204, 204, 204)" stroke-width="1px"></line><line x1="559.6869985504151" y1="0" x2="559.6869985504151" y2="5" style="visibility: inherit;" fill="rgb(0, 0, 0)" stroke="rgb(204, 204, 204)" stroke-width="1px"></line></g><g transform="translate(0, 8)"><text style="text-anchor: middle; visibility: hidden; font-family: &quot;Helvetica Neue&quot;, sans-serif; font-size: 12px; font-weight: 200;" x="0" y="0" dx="0em" dy="0.95em" fill="rgb(50, 49, 63)" stroke="none" stroke-width="1px">-5</text><text style="text-anchor: middle; visibility: inherit; font-family: &quot;Helvetica Neue&quot;, sans-serif; font-size: 12px; font-weight: 200;" x="39.977642753601074" y="0" dx="0em" dy="0.95em" fill="rgb(50, 49, 63)" stroke="none" stroke-width="1px">0</text><text style="text-anchor: middle; visibility: inherit; font-family: &quot;Helvetica Neue&quot;, sans-serif; font-size: 12px; font-weight: 200;" x="79.95528550720215" y="0" dx="0em" dy="0.95em" fill="rgb(50, 49, 63)" stroke="none" stroke-width="1px">5</text><text style="text-anchor: middle; visibility: inherit; font-family: &quot;Helvetica Neue&quot;, sans-serif; font-size: 12px; font-weight: 200;" x="119.93292826080322" y="0" dx="0em" dy="0.95em" fill="rgb(50, 49, 63)" stroke="none" stroke-width="1px">10</text><text style="text-anchor: middle; visibility: inherit; font-family: &quot;Helvetica Neue&quot;, sans-serif; font-size: 12px; font-weight: 200;" x="159.9105710144043" y="0" dx="0em" dy="0.95em" fill="rgb(50, 49, 63)" stroke="none" stroke-width="1px">15</text><text style="text-anchor: middle; visibility: inherit; font-family: &quot;Helvetica Neue&quot;, sans-serif; font-size: 12px; font-weight: 200;" x="199.8882137680054" y="0" dx="0em" dy="0.95em" fill="rgb(50, 49, 63)" stroke="none" stroke-width="1px">20</text><text style="text-anchor: middle; visibility: inherit; font-family: &quot;Helvetica Neue&quot;, sans-serif; font-size: 12px; font-weight: 200;" x="239.86585652160645" y="0" dx="0em" dy="0.95em" fill="rgb(50, 49, 63)" stroke="none" stroke-width="1px">25</text><text style="text-anchor: middle; visibility: inherit; font-family: &quot;Helvetica Neue&quot;, sans-serif; font-size: 12px; font-weight: 200;" x="279.84349927520753" y="0" dx="0em" dy="0.95em" fill="rgb(50, 49, 63)" stroke="none" stroke-width="1px">30</text><text style="text-anchor: middle; visibility: inherit; font-family: &quot;Helvetica Neue&quot;, sans-serif; font-size: 12px; font-weight: 200;" x="319.8211420288086" y="0" dx="0em" dy="0.95em" fill="rgb(50, 49, 63)" stroke="none" stroke-width="1px">35</text><text style="text-anchor: middle; visibility: inherit; font-family: &quot;Helvetica Neue&quot;, sans-serif; font-size: 12px; font-weight: 200;" x="359.7987847824097" y="0" dx="0em" dy="0.95em" fill="rgb(50, 49, 63)" stroke="none" stroke-width="1px">40</text><text style="text-anchor: middle; visibility: inherit; font-family: &quot;Helvetica Neue&quot;, sans-serif; font-size: 12px; font-weight: 200;" x="399.7764275360108" y="0" dx="0em" dy="0.95em" fill="rgb(50, 49, 63)" stroke="none" stroke-width="1px">45</text><text style="text-anchor: middle; visibility: inherit; font-family: &quot;Helvetica Neue&quot;, sans-serif; font-size: 12px; font-weight: 200;" x="439.75407028961183" y="0" dx="0em" dy="0.95em" fill="rgb(50, 49, 63)" stroke="none" stroke-width="1px">50</text><text style="text-anchor: middle; visibility: inherit; font-family: &quot;Helvetica Neue&quot;, sans-serif; font-size: 12px; font-weight: 200;" x="479.7317130432129" y="0" dx="0em" dy="0.95em" fill="rgb(50, 49, 63)" stroke="none" stroke-width="1px">55</text><text style="text-anchor: middle; visibility: inherit; font-family: &quot;Helvetica Neue&quot;, sans-serif; font-size: 12px; font-weight: 200;" x="519.7093557968141" y="0" dx="0em" dy="0.95em" fill="rgb(50, 49, 63)" stroke="none" stroke-width="1px">60</text><text style="text-anchor: middle; visibility: hidden; font-family: &quot;Helvetica Neue&quot;, sans-serif; font-size: 12px; font-weight: 200;" x="559.6869985504151" y="0" dx="0em" dy="0.95em" fill="rgb(50, 49, 63)" stroke="none" stroke-width="1px">65</text></g><line x1="0" y1="0" x2="559.6869985504151" y2="0" fill="rgb(0, 0, 0)" stroke="rgb(204, 204, 204)" stroke-width="1px"></line></g></g></g></g></svg>