<?xml version="1.0" standalone="no"?>
<!DOCTYPE svg PUBLIC "-//W3C//DTD SVG 20010904//EN"
 "http://www.w3.org/TR/2001/REC-SVG-20010904/DTD/svg10.dtd">
<svg version="1.0" xmlns="http://www.w3.org/2000/svg"
 width="512.000000pt" height="512.000000pt" viewBox="0 0 512.000000 512.000000"
 preserveAspectRatio="xMidYMid meet">
<metadata>
Created by potrace 1.11, written by Peter Selinger 2001-2013
</metadata>
<g transform="translate(0.000000,512.000000) scale(0.100000,-0.100000)"
fill="#000000" stroke="none">
<path d="M0 2560 l0 -2560 2560 0 2560 0 0 2560 0 2560 -2560 0 -2560 0 0
-2560z m3298 1665 c-3 -3 -25 -7 -49 -10 -33 -3 -38 -2 -19 4 28 10 76 14 68
6z m170 -20 c66 -31 138 -79 181 -123 33 -35 71 -104 70 -132 0 -8 -10 9 -22
38 -37 90 -148 181 -270 223 -29 10 -43 18 -32 18 11 1 44 -10 73 -24z m-363
-35 c-3 -5 -11 -10 -16 -10 -6 0 -7 5 -4 10 3 6 11 10 16 10 6 0 7 -4 4 -10z
m-36 -13 c-16 -13 -79 -48 -79 -44 0 7 63 47 74 47 5 0 7 -1 5 -3z m-137 -92
c-36 -26 -54 -47 -105 -125 -52 -81 -67 -100 -47 -60 45 87 154 219 169 204 3
-3 -5 -11 -17 -19z m437 -29 c-2 -2 -29 -6 -59 -9 -34 -3 -47 -2 -35 3 19 8
103 14 94 6z m-119 -15 c0 -5 -10 -11 -22 -14 -13 -3 -34 -8 -48 -12 -14 -3
-5 3 20 14 54 24 50 23 50 12z m199 -25 c40 -26 81 -71 81 -90 0 -6 -9 4 -20
21 -11 18 -41 46 -67 63 -27 16 -45 30 -40 30 4 0 25 -11 46 -24z m-299 -15
c0 -5 -12 -14 -28 -20 -45 -19 -110 -82 -147 -145 -19 -33 -35 -55 -35 -49 0
5 17 37 38 69 35 55 73 91 142 136 30 20 30 20 30 9z m577 -83 c-3 -7 -5 -2
-5 12 0 14 2 19 5 13 2 -7 2 -19 0 -25z m-185 -59 c-1 -22 -3 -44 -6 -47 -3
-3 -6 19 -6 48 0 29 3 51 6 47 4 -3 6 -25 6 -48z m-793 -59 c-19 -62 -38 -87
-84 -111 -11 -6 -1 6 23 26 23 20 42 44 42 53 0 18 31 104 36 99 2 -1 -6 -32
-17 -67z m978 -17 c-3 -10 -5 -2 -5 17 0 19 2 27 5 18 2 -10 2 -26 0 -35z
m-197 8 c0 -17 -89 -130 -112 -142 -13 -7 -4 7 23 34 25 25 54 62 64 81 20 37
25 42 25 27z m-603 -117 c-12 -110 -6 -138 40 -181 29 -27 30 -31 10 -22 -29
13 -67 77 -69 116 -3 58 17 194 27 181 1 -2 -3 -44 -8 -94z m772 20 c-34 -67
-43 -64 -11 4 15 33 28 55 30 51 2 -5 -7 -29 -19 -55z m-1075 -39 c-10 -9 -32
-22 -49 -30 -16 -9 -21 -10 -11 -3 10 7 31 23 45 35 14 12 28 19 30 17 3 -2
-4 -11 -15 -19z m736 -32 c-19 -8 -42 -20 -50 -26 -13 -11 -13 -10 0 7 15 20
46 35 70 35 8 -1 -1 -7 -20 -16z m265 -38 c-41 -49 -125 -125 -139 -125 -5 0
9 14 30 31 44 34 124 120 124 131 0 5 5 8 11 8 6 0 -6 -20 -26 -45z m-1100 9
c-28 -21 -55 -36 -55 -29 0 6 62 45 70 45 3 -1 -4 -8 -15 -16z m742 -34 c-34
-27 -116 -67 -152 -75 -16 -3 -5 4 25 16 30 12 73 34 95 49 46 33 70 40 32 10z
m-807 -5 c0 -2 -21 -16 -47 -31 -27 -16 -79 -49 -118 -74 -85 -56 -95 -62 -95
-57 0 6 134 96 200 134 61 35 60 35 60 28z m284 -71 c9 -24 7 -31 -5 -12 -9
17 -12 17 -37 2 l-27 -16 24 21 c28 25 37 26 45 5z m317 -15 c-16 -6 -28 -6
-35 1 -7 7 1 10 25 9 32 0 33 -1 10 -10z m-391 -13 c0 -2 -21 -17 -47 -32 -27
-15 -58 -34 -70 -42 -13 -8 -23 -12 -23 -9 0 5 130 87 138 87 1 0 2 -2 2 -4z
m795 -6 c-3 -5 -16 -15 -28 -21 -21 -10 -21 -9 2 10 25 23 36 27 26 11z m-695
-21 c0 -6 -4 -7 -10 -4 -5 3 -10 11 -10 16 0 6 5 7 10 4 6 -3 10 -11 10 -16z
m667 -81 c-3 -8 -9 -2 -15 14 -6 14 -16 29 -22 33 -5 3 -7 11 -4 17 8 13 47
-48 41 -64z m-567 -28 c25 -17 40 -30 34 -30 -18 0 -99 66 -118 97 -16 25 -14
25 11 -5 15 -18 48 -46 73 -62z m-680 63 c0 -5 -13 -17 -28 -27 l-27 -19 24
26 c26 28 31 32 31 20z m330 -18 c0 -2 -13 -11 -30 -20 -38 -19 -40 -11 -2 9
31 17 32 18 32 11z m-706 -33 c5 -9 -63 -6 -72 3 -3 3 11 5 31 5 20 0 38 -4
41 -8z m285 -29 c-18 -15 -40 -36 -48 -45 -19 -22 -29 -22 -50 -4 -31 27 -88
54 -130 61 -23 4 -40 9 -38 11 12 13 95 -13 139 -43 l51 -33 51 44 c28 24 53
42 55 40 2 -2 -12 -16 -30 -31z m-370 23 c-8 -8 -148 -11 -155 -3 -4 4 30 7
76 7 46 0 81 -2 79 -4z m721 0 c0 -3 -4 -8 -10 -11 -5 -3 -10 -1 -10 4 0 6 5
11 10 11 6 0 10 -2 10 -4z m804 -4 c2 -4 1 -14 -5 -22 -7 -12 -9 -12 -9 3 0
14 -5 17 -21 12 -15 -5 -19 -4 -15 4 8 13 42 15 50 3z m194 -38 c-3 -27 -4
-26 -9 8 -3 22 -1 34 4 29 5 -5 7 -21 5 -37z m-1933 21 c-62 -17 -69 -17 -30
0 17 8 41 14 55 14 15 0 5 -6 -25 -14z m905 0 c0 -3 -19 -17 -42 -31 -24 -15
-67 -47 -95 -71 -29 -25 -53 -42 -53 -38 0 9 53 53 123 103 62 43 67 46 67 37z
m755 -5 c-11 -5 -27 -9 -35 -9 -9 0 -8 4 5 9 11 5 27 9 35 9 9 0 8 -4 -5 -9z
m-225 -16 c0 -2 -7 -4 -15 -4 -8 0 -15 4 -15 10 0 5 7 7 15 4 8 -4 15 -8 15
-10z m107 -8 c4 -3 -14 -6 -40 -6 -25 0 -48 4 -51 8 -5 9 82 7 91 -2z m56 7
c-7 -2 -21 -2 -30 0 -10 3 -4 5 12 5 17 0 24 -2 18 -5z m149 -28 c3 -14 1 -28
-3 -31 -5 -3 -9 9 -9 25 0 38 6 40 12 6z m-1873 10 c-12 -11 -117 -61 -112
-52 3 5 29 20 57 33 51 24 64 28 55 19z m2070 -47 c0 -27 -2 -29 -8 -13 -5 11
-6 26 -4 33 8 21 13 13 12 -20z m-186 -46 c4 -21 3 -31 -3 -27 -6 3 -10 20
-10 37 0 38 5 34 13 -10z m-2046 -10 c-20 -20 -48 -60 -62 -87 -14 -28 -23
-39 -19 -25 8 34 51 100 83 127 40 35 39 27 -2 -15z m2243 -6 c0 -13 3 -33 7
-43 3 -10 3 -15 -1 -11 -12 10 -25 78 -15 78 5 0 9 -11 9 -24z m-1283 -30
c-21 -19 -51 -36 -67 -39 -23 -5 -29 -12 -33 -39 -3 -29 -4 -28 -5 10 -2 40
-1 42 27 42 16 0 45 13 67 29 52 40 58 38 11 -3z m-577 4 c0 -5 -10 -10 -22
-10 -27 0 -110 -30 -180 -66 -38 -19 -54 -35 -69 -67 -10 -23 -19 -36 -19 -29
0 27 32 73 68 95 35 22 153 70 197 80 11 3 21 5 23 6 1 0 2 -3 2 -9z m63 3
c-7 -2 -19 -2 -25 0 -7 3 -2 5 12 5 14 0 19 -2 13 -5z m125 0 c-21 -2 -55 -2
-75 0 -21 2 -4 4 37 4 41 0 58 -2 38 -4z m82 -35 c0 -4 -9 1 -20 12 -11 11
-20 23 -20 27 0 3 9 -2 20 -12 11 -10 20 -22 20 -27z m1429 -103 c-2 -17 -38
99 -38 120 0 11 9 -9 19 -45 11 -36 19 -69 19 -75z m199 15 c0 -8 -6 1 -13 20
-7 19 -13 42 -13 50 0 8 6 -1 13 -20 7 -19 13 -42 13 -50z m-1621 48 c-3 -8
-6 -5 -6 6 -1 11 2 17 5 13 3 -3 4 -12 1 -19z m10 -55 c-3 -10 -5 -4 -5 12 0
17 2 24 5 18 2 -7 2 -21 0 -30z m-760 -5 c-3 -8 -6 -5 -6 6 -1 11 2 17 5 13 3
-3 4 -12 1 -19z m950 -45 c-3 -10 -5 -4 -5 12 0 17 2 24 5 18 2 -7 2 -21 0
-30z m1433 17 c0 -11 -2 -20 -4 -20 -2 0 -6 9 -9 20 -3 11 -1 20 4 20 5 0 9
-9 9 -20z m-2393 -22 c-3 -7 -5 -2 -5 12 0 14 2 19 5 13 2 -7 2 -19 0 -25z
m2198 22 c3 -5 1 -10 -4 -10 -6 0 -11 5 -11 10 0 6 2 10 4 10 3 0 8 -4 11 -10z
m-1432 -25 c-7 -21 -13 -19 -13 6 0 11 4 18 10 14 5 -3 7 -12 3 -20z m1462
-115 c4 -16 0 -13 -10 9 -8 19 -17 52 -20 75 -5 40 -5 40 9 -9 8 -27 17 -61
21 -75z m-2038 73 c-3 -10 -5 -4 -5 12 0 17 2 24 5 18 2 -7 2 -21 0 -30z
m2260 -140 c-5 -4 -57 157 -56 172 0 6 14 -30 30 -79 16 -49 28 -91 26 -93z
m-1522 50 c-14 -43 -45 -107 -68 -142 -48 -75 -137 -171 -157 -171 -8 0 2 11
22 25 44 30 129 141 164 214 14 30 33 85 43 123 9 37 17 59 19 49 2 -11 -9
-54 -23 -98z m-930 52 c0 -30 -3 -55 -7 -55 -5 0 -8 25 -8 55 0 30 3 55 8 55
4 0 7 -25 7 -55z m752 33 c-3 -8 -6 -5 -6 6 -1 11 2 17 5 13 3 -3 4 -12 1 -19z
m-45 -29 c16 -9 23 -8 29 2 10 16 12 -1 3 -25 -5 -14 -9 -13 -31 4 -44 34 -81
26 -127 -27 -59 -67 -138 -143 -151 -143 -5 0 5 12 24 27 19 15 48 43 65 62
80 92 103 111 135 111 18 0 42 -5 53 -11z m-513 -51 c-1 -31 -1 -31 -8 -8 -5
14 -6 28 -4 33 9 15 13 6 12 -25z m-192 -55 c-3 -10 -5 -4 -5 12 0 17 2 24 5
18 2 -7 2 -21 0 -30z m2252 -8 c0 -5 -4 -3 -9 5 -5 8 -9 22 -9 30 0 16 17 -16
18 -35z m-2052 3 c-3 -8 -6 -5 -6 6 -1 11 2 17 5 13 3 -3 4 -12 1 -19z m2293
-113 c17 -54 29 -103 27 -108 -1 -5 -15 33 -30 84 -40 136 -40 135 -33 128 3
-3 19 -50 36 -104z m-2242 33 c30 -32 59 -35 123 -13 24 9 39 12 34 7 -31 -28
-119 -40 -145 -19 -23 18 -60 68 -60 81 0 6 6 2 12 -9 6 -11 22 -32 36 -47z
m2026 7 c4 -19 3 -25 -3 -15 -4 8 -11 29 -15 45 -4 19 -3 25 3 15 4 -8 11 -28
15 -45z m-2201 -98 c35 -46 68 -79 97 -99 14 -9 19 -17 12 -17 -26 -1 -122
108 -152 171 -17 35 -30 70 -30 78 0 8 11 -11 24 -43 13 -31 35 -72 49 -90z
m2226 18 l0 -20 -9 20 c-5 11 -9 27 -9 35 -1 13 0 13 9 0 5 -8 9 -24 9 -35z
m30 -105 c0 -9 -4 -8 -9 5 -5 11 -9 27 -9 35 0 9 4 8 9 -5 5 -11 9 -27 9 -35z
m210 -30 c0 -9 -4 -8 -9 5 -5 11 -9 27 -9 35 0 9 4 8 9 -5 5 -11 9 -27 9 -35z
m-1904 20 c-3 -5 -16 -10 -28 -9 -20 1 -20 2 3 9 14 4 26 8 28 9 2 1 0 -3 -3
-9z m42 4 c-3 -3 -12 -4 -19 -1 -8 3 -5 6 6 6 11 1 17 -2 13 -5z m-97 -13 c0
-5 -10 -11 -22 -13 -13 -2 -24 -10 -25 -18 -6 -56 -37 -213 -40 -204 -2 6 3
43 11 81 8 38 12 85 10 105 -5 32 -3 36 28 45 18 6 34 11 36 12 1 1 2 -3 2 -8z
m1778 -91 c0 -15 -5 -5 -14 25 -17 63 -17 81 1 35 7 -19 13 -46 13 -60z
m-2099 64 c10 -9 -35 -3 -49 6 -11 8 -7 9 15 4 17 -4 32 -8 34 -10z m76 -5 c3
-3 -2 -32 -10 -65 -12 -46 -14 -50 -10 -17 3 23 8 48 11 57 5 13 -1 16 -26 16
-17 0 -29 4 -26 8 6 10 52 10 61 1z m2212 -21 c-3 -8 -6 -5 -6 6 -1 11 2 17 5
13 3 -3 4 -12 1 -19z m13 -43 c0 -14 -2 -25 -4 -25 -2 0 -6 11 -8 25 -3 14 -1
25 3 25 5 0 9 -11 9 -25z m-182 -105 c0 -22 -1 -22 -8 5 -4 17 -8 41 -8 55 0
22 1 22 8 -5 4 -16 8 -41 8 -55z m195 15 c4 -34 3 -42 -3 -25 -8 25 -13 87 -6
79 2 -2 6 -26 9 -54z m-2278 -50 c-8 -22 -13 -29 -10 -15 3 14 9 41 13 60 4
23 8 28 10 15 1 -11 -4 -38 -13 -60z m2092 -27 c-3 -7 -5 -2 -5 12 0 14 2 19
5 13 2 -7 2 -19 0 -25z m203 -3 c0 -14 -2 -25 -4 -25 -2 0 -6 11 -8 25 -3 14
-1 25 3 25 5 0 9 -11 9 -25z m-2116 -59 c-9 -37 -18 -65 -21 -63 -2 3 0 22 5
43 6 22 13 52 16 68 4 15 9 27 11 24 2 -2 -3 -34 -11 -72z m-204 -3 c-11 -17
-11 -17 -6 0 3 10 7 26 7 35 1 15 2 15 6 0 2 -10 -1 -25 -7 -35z m2127 10 c-3
-10 -5 -4 -5 12 0 17 2 24 5 18 2 -7 2 -21 0 -30z m222 -98 c0 -11 -7 5 -14
35 -18 72 -17 100 1 35 7 -27 13 -59 13 -70z m-195 7 c8 -34 11 -62 6 -62 -4
0 -10 15 -13 33 -3 17 -9 48 -13 67 -12 59 4 28 20 -38z m-2154 54 c0 -3 -4
-8 -10 -11 -5 -3 -10 -1 -10 4 0 6 5 11 10 11 6 0 10 -2 10 -4z m-36 -90 c-10
-31 -19 -54 -22 -52 -2 2 4 29 14 60 10 31 19 54 22 52 2 -2 -4 -29 -14 -60z
m207 13 c-5 -13 -10 -19 -10 -12 -1 15 10 45 15 40 3 -2 0 -15 -5 -28z m2186
-41 c-3 -7 -5 -2 -5 12 0 14 2 19 5 13 2 -7 2 -19 0 -25z m-2206 -19 c-5 -13
-10 -19 -10 -12 -1 15 10 45 15 40 3 -2 0 -15 -5 -28z m2016 -26 c-3 -10 -5
-4 -5 12 0 17 2 24 5 18 2 -7 2 -21 0 -30z m203 -1 c0 -22 7 -32 28 -41 44
-20 192 -123 192 -134 0 -6 -10 -1 -22 10 -35 31 -159 113 -172 113 -23 0 -38
18 -40 49 -1 17 1 31 6 31 4 0 8 -13 8 -28z m-2439 -33 c-6 -18 -11 -47 -11
-64 0 -37 -13 -45 -50 -34 -23 7 -23 7 8 8 28 1 32 4 32 27 0 31 21 106 28
100 2 -3 -1 -19 -7 -37z m188 -40 c-12 -35 -18 -64 -13 -66 18 -7 109 -63 101
-63 -11 0 -117 61 -117 68 0 13 43 132 47 128 2 -2 -6 -32 -18 -67z m2064 -62
c-37 -39 -143 -191 -143 -205 0 -5 -7 -16 -17 -23 -15 -13 -15 -12 -4 10 33
61 105 164 150 214 23 25 24 30 13 60 -19 54 -13 65 10 19 l22 -42 -31 -33z
m-2378 -7 c-11 -5 -29 -9 -40 -9 l-20 0 20 9 c11 5 29 9 40 9 l20 0 -20 -9z
m-233 -100 c-23 -17 -56 -49 -73 -73 -18 -23 -29 -34 -25 -23 13 38 103 125
130 126 5 0 -10 -14 -32 -30z m3206 -74 c23 -25 42 -49 42 -53 0 -5 -15 8 -33
27 -17 20 -50 53 -72 74 -33 32 -34 35 -9 18 16 -11 49 -41 72 -66z m-2450 19
c-3 -3 -13 7 -23 22 l-17 28 23 -22 c12 -12 20 -25 17 -28z m-357 -56 c4 -19
20 -44 36 -57 20 -17 22 -21 6 -13 -27 14 -53 49 -53 73 0 15 -10 18 -67 19
-40 1 -58 4 -45 7 13 4 44 7 70 6 45 -1 47 -2 53 -35z m379 22 c0 -11 16 -38
35 -61 19 -23 35 -45 35 -48 0 -4 -16 11 -35 33 -36 42 -61 95 -44 95 5 0 9
-9 9 -19z m2030 -9 c3 -2 -20 -2 -50 1 -50 5 -57 3 -80 -22 -25 -27 -19 -12 9
22 12 14 24 16 65 11 28 -4 53 -9 56 -12z m50 -8 c0 -2 -9 -4 -20 -4 -11 0
-20 4 -20 9 0 5 9 7 20 4 11 -3 20 -7 20 -9z m54 -13 c3 -4 -6 -6 -19 -3 -14
2 -25 6 -25 8 0 8 39 4 44 -5z m-3023 -37 c-5 -16 -10 -21 -10 -12 -1 18 10
51 15 45 2 -1 -1 -16 -5 -33z m226 2 c-15 -12 -32 -36 -37 -52 -7 -26 -8 -26
-9 -6 -1 22 50 83 68 82 3 -1 -7 -11 -22 -24z m2518 -45 c-8 -17 -18 -31 -21
-31 -3 0 -4 3 -2 8 21 43 32 61 35 58 3 -2 -3 -18 -12 -35z m420 3 c19 -20 35
-41 35 -47 0 -5 -1 -8 -2 -6 -2 2 -21 23 -43 47 -47 51 -39 57 10 6z m233 -49
c0 -29 0 -29 -7 5 -4 19 -11 46 -14 60 -6 20 -4 19 8 -5 8 -16 14 -43 13 -60z
m-3403 -27 c3 -80 18 -150 42 -186 8 -13 12 -26 10 -29 -20 -19 -67 151 -67
241 0 83 12 62 15 -26z m985 27 c0 -5 -5 -3 -10 5 -5 8 -10 20 -10 25 0 6 5 3
10 -5 5 -8 10 -19 10 -25z m-255 5 c3 -6 -1 -7 -9 -4 -18 7 -21 14 -7 14 6 0
13 -4 16 -10z m1766 -51 c-11 -30 -20 -49 -20 -43 -1 15 30 106 35 101 2 -2
-5 -28 -15 -58z m-1706 10 c14 -21 -1 -17 -25 8 -23 24 -23 25 -3 15 12 -7 25
-17 28 -23z m202 -16 c-3 -10 -5 -4 -5 12 0 17 2 24 5 18 2 -7 2 -21 0 -30z
m2217 -51 c-13 -46 -63 -126 -72 -117 -3 3 4 15 16 28 30 32 52 89 53 139 1
35 2 39 8 18 4 -14 2 -44 -5 -68z m-3016 37 c-3 -20 -5 -19 -9 9 -3 20 -2 29
4 23 5 -5 7 -19 5 -32z m3214 -11 c-6 -6 -8 -1 -7 14 3 32 7 36 12 14 3 -10 1
-22 -5 -28z m-2605 -10 c-3 -8 -6 -5 -6 6 -1 11 2 17 5 13 3 -3 4 -12 1 -19z
m1877 -26 c-4 -18 -10 -32 -14 -32 -5 0 -3 16 3 35 13 42 20 40 11 -3z m-2401
-119 c11 -13 18 -25 15 -28 -9 -9 -98 135 -98 158 0 7 14 -15 31 -48 17 -33
41 -70 52 -82z m714 105 c-3 -8 -6 -5 -6 6 -1 11 2 17 5 13 3 -3 4 -12 1 -19z
m1486 -8 c-7 -28 -13 -25 -13 6 0 14 4 23 9 20 5 -3 7 -15 4 -26z m922 -7 c-6
-35 -34 -98 -35 -80 0 5 4 16 9 26 8 15 16 49 20 84 1 4 4 7 7 7 3 0 3 -17 -1
-37z m-2650 -69 c-21 -30 -42 -54 -47 -54 -5 0 3 12 17 28 14 15 33 44 43 65
9 21 18 33 20 27 2 -6 -13 -36 -33 -66z m215 0 c-25 -69 -51 -114 -64 -114 -5
0 -2 8 6 18 16 19 38 66 59 124 7 21 15 36 17 33 2 -2 -6 -30 -18 -61z m1697
9 c-3 -10 -5 -2 -5 17 0 19 2 27 5 18 2 -10 2 -26 0 -35z m-185 -29 c2 -19 0
-37 -4 -40 -4 -3 -8 13 -8 35 0 51 6 53 12 5z m206 -37 c7 -16 8 -26 3 -23 -5
3 -14 20 -20 38 -13 38 0 26 17 -15z m672 14 c-5 -11 -15 -23 -21 -27 -6 -3
-3 5 6 20 20 30 30 35 15 7z m-3271 -37 c12 -20 20 -38 18 -40 -2 -2 -14 14
-26 36 -28 50 -21 53 8 4z m2410 -39 c0 -5 -4 -3 -9 5 -5 8 -9 22 -9 30 0 16
17 -16 18 -35z m822 16 c-16 -29 -160 -159 -205 -185 -23 -13 -52 -27 -66 -30
-14 -3 -5 3 19 14 56 26 169 116 218 175 40 49 49 56 34 26z m-2908 -8 c-7 -2
-19 -2 -25 0 -7 3 -2 5 12 5 14 0 19 -2 13 -5z m197 3 c0 -2 -11 -6 -25 -8
-13 -3 -22 -1 -19 3 5 9 44 13 44 5z m2425 -6 c-9 -15 -114 -43 -160 -42 -86
2 -83 17 3 17 62 0 96 5 117 16 36 20 48 23 40 9z m-2488 -6 c-7 -8 -108 -7
-115 1 -3 3 23 5 58 5 35 0 60 -3 57 -6z m335 -31 c-21 -30 -62 -70 -62 -61 0
6 73 88 78 88 2 0 -5 -12 -16 -27z m-722 -28 l25 -30 -33 29 c-17 17 -32 34
-32 40 0 6 3 6 8 1 4 -6 18 -23 32 -40z m2404 -35 c15 -19 7 -13 -18 13 -25
27 -46 54 -45 60 0 7 8 1 17 -13 9 -13 30 -40 46 -60z m-1822 -43 c-13 -15
-111 -52 -118 -44 -4 3 11 11 32 17 22 6 50 17 64 25 31 18 35 18 22 2z m-442
-22 c14 -8 21 -14 15 -14 -5 0 -21 6 -35 14 -14 8 -20 14 -15 14 6 0 21 -6 35
-14z m70 -21 c0 -2 -9 -4 -20 -4 -11 0 -20 4 -20 9 0 5 9 7 20 4 11 -3 20 -7
20 -9z m240 -4 c0 -5 -17 -9 -37 -9 l-38 2 35 7 c19 4 36 8 38 9 1 0 2 -3 2
-9z m-182 -7 c-10 -2 -26 -2 -35 0 -10 3 -2 5 17 5 19 0 27 -2 18 -5z m96 -5
c-7 -10 -61 -10 -67 0 -3 4 12 7 33 7 21 1 36 -3 34 -7z m2256 -13 c30 -7 44
-13 30 -13 -24 0 -115 25 -95 27 6 0 35 -6 65 -14z m237 -1 c-3 -3 -12 -4 -19
-1 -8 3 -5 6 6 6 11 1 17 -2 13 -5z m-49 -11 c-10 -2 -28 -2 -40 0 -13 2 -5 4
17 4 22 1 32 -1 23 -4z"/>
</g>
</svg>
