<svg viewBox="0 0 330 200" xmlns="http://www.w3.org/2000/svg"><g><g><g><g><g><line x1="60" y1="178" x2="55" y2="178" style="visibility: inherit;" fill="rgb(0, 0, 0)" stroke="rgb(204, 204, 204)" stroke-width="1px"></line><line x1="60" y1="155.75" x2="55" y2="155.75" style="visibility: inherit;" fill="rgb(0, 0, 0)" stroke="rgb(204, 204, 204)" stroke-width="1px"></line><line x1="60" y1="133.5" x2="55" y2="133.5" style="visibility: inherit;" fill="rgb(0, 0, 0)" stroke="rgb(204, 204, 204)" stroke-width="1px"></line><line x1="60" y1="111.24999999999999" x2="55" y2="111.24999999999999" style="visibility: inherit;" fill="rgb(0, 0, 0)" stroke="rgb(204, 204, 204)" stroke-width="1px"></line><line x1="60" y1="88.99999999999999" x2="55" y2="88.99999999999999" style="visibility: inherit;" fill="rgb(0, 0, 0)" stroke="rgb(204, 204, 204)" stroke-width="1px"></line><line x1="60" y1="66.75" x2="55" y2="66.75" style="visibility: inherit;" fill="rgb(0, 0, 0)" stroke="rgb(204, 204, 204)" stroke-width="1px"></line><line x1="60" y1="44.5" x2="55" y2="44.5" style="visibility: inherit;" fill="rgb(0, 0, 0)" stroke="rgb(204, 204, 204)" stroke-width="1px"></line><line x1="60" y1="22.25" x2="55" y2="22.25" style="visibility: inherit;" fill="rgb(0, 0, 0)" stroke="rgb(204, 204, 204)" stroke-width="1px"></line><line x1="60" y1="0" x2="55" y2="0" style="visibility: inherit;" fill="rgb(0, 0, 0)" stroke="rgb(204, 204, 204)" stroke-width="1px"></line></g><g transform="translate(50, 0)"><text x="0" y="178" dx="0em" dy="0.3em" style="text-anchor: end; visibility: hidden; font-family: &quot;Helvetica Neue&quot;, sans-serif; font-size: 12px; font-weight: 200;" fill="rgb(50, 49, 63)" stroke="none" stroke-width="1px">-0.05</text><text x="0" y="155.75" dx="0em" dy="0.3em" style="text-anchor: end; visibility: inherit; font-family: &quot;Helvetica Neue&quot;, sans-serif; font-size: 12px; font-weight: 200;" fill="rgb(50, 49, 63)" stroke="none" stroke-width="1px">0</text><text x="0" y="133.5" dx="0em" dy="0.3em" style="text-anchor: end; visibility: hidden; font-family: &quot;Helvetica Neue&quot;, sans-serif; font-size: 12px; font-weight: 200;" fill="rgb(50, 49, 63)" stroke="none" stroke-width="1px">0.05</text><text x="0" y="111.24999999999999" dx="0em" dy="0.3em" style="text-anchor: end; visibility: inherit; font-family: &quot;Helvetica Neue&quot;, sans-serif; font-size: 12px; font-weight: 200;" fill="rgb(50, 49, 63)" stroke="none" stroke-width="1px">0.1</text><text x="0" y="88.99999999999999" dx="0em" dy="0.3em" style="text-anchor: end; visibility: hidden; font-family: &quot;Helvetica Neue&quot;, sans-serif; font-size: 12px; font-weight: 200;" fill="rgb(50, 49, 63)" stroke="none" stroke-width="1px">0.15</text><text x="0" y="66.75" dx="0em" dy="0.3em" style="text-anchor: end; visibility: inherit; font-family: &quot;Helvetica Neue&quot;, sans-serif; font-size: 12px; font-weight: 200;" fill="rgb(50, 49, 63)" stroke="none" stroke-width="1px">0.2</text><text x="0" y="44.5" dx="0em" dy="0.3em" style="text-anchor: end; visibility: hidden; font-family: &quot;Helvetica Neue&quot;, sans-serif; font-size: 12px; font-weight: 200;" fill="rgb(50, 49, 63)" stroke="none" stroke-width="1px">0.25</text><text x="0" y="22.25" dx="0em" dy="0.3em" style="text-anchor: end; visibility: inherit; font-family: &quot;Helvetica Neue&quot;, sans-serif; font-size: 12px; font-weight: 200;" fill="rgb(50, 49, 63)" stroke="none" stroke-width="1px">0.3</text><text x="0" y="0" dx="0em" dy="0.3em" style="text-anchor: end; visibility: hidden; font-family: &quot;Helvetica Neue&quot;, sans-serif; font-size: 12px; font-weight: 200;" fill="rgb(50, 49, 63)" stroke="none" stroke-width="1px">0.35</text></g><line x1="60" y1="0" x2="60" y2="178" fill="rgb(0, 0, 0)" stroke="rgb(204, 204, 204)" stroke-width="1px"></line></g></g><g transform="translate(60, 0)" clip-path="url(#clip_0)"><clipPath id="clip_0"><rect width="270" height="178"></rect></clipPath><g><g><g><line x1="0" y1="0" x2="0" y2="178" fill="rgb(0, 0, 0)" stroke="rgb(60, 60, 60)" stroke-width="1px" opacity="0.25"></line><line x1="19.285714285714285" y1="0" x2="19.285714285714285" y2="178" fill="rgb(0, 0, 0)" stroke="rgb(60, 60, 60)" stroke-width="1px" opacity="0.25"></line><line x1="38.57142857142857" y1="0" x2="38.57142857142857" y2="178" fill="rgb(0, 0, 0)" stroke="rgb(60, 60, 60)" stroke-width="1px" opacity="0.25"></line><line x1="57.857142857142854" y1="0" x2="57.857142857142854" y2="178" fill="rgb(0, 0, 0)" stroke="rgb(60, 60, 60)" stroke-width="1px" opacity="0.25"></line><line x1="77.14285714285714" y1="0" x2="77.14285714285714" y2="178" fill="rgb(0, 0, 0)" stroke="rgb(60, 60, 60)" stroke-width="1px" opacity="0.25"></line><line x1="96.42857142857143" y1="0" x2="96.42857142857143" y2="178" fill="rgb(0, 0, 0)" stroke="rgb(60, 60, 60)" stroke-width="1px" opacity="0.25"></line><line x1="115.71428571428571" y1="0" x2="115.71428571428571" y2="178" fill="rgb(0, 0, 0)" stroke="rgb(60, 60, 60)" stroke-width="1px" opacity="0.25"></line><line x1="135" y1="0" x2="135" y2="178" fill="rgb(0, 0, 0)" stroke="rgb(60, 60, 60)" stroke-width="1px" opacity="0.25"></line><line x1="154.28571428571428" y1="0" x2="154.28571428571428" y2="178" fill="rgb(0, 0, 0)" stroke="rgb(60, 60, 60)" stroke-width="1px" opacity="0.25"></line><line x1="173.57142857142858" y1="0" x2="173.57142857142858" y2="178" fill="rgb(0, 0, 0)" stroke="rgb(60, 60, 60)" stroke-width="1px" opacity="0.25"></line><line x1="192.85714285714286" y1="0" x2="192.85714285714286" y2="178" fill="rgb(0, 0, 0)" stroke="rgb(60, 60, 60)" stroke-width="1px" opacity="0.25"></line><line x1="212.14285714285714" y1="0" x2="212.14285714285714" y2="178" fill="rgb(0, 0, 0)" stroke="rgb(60, 60, 60)" stroke-width="1px" opacity="0.25"></line><line x1="231.42857142857142" y1="0" x2="231.42857142857142" y2="178" fill="rgb(0, 0, 0)" stroke="rgb(60, 60, 60)" stroke-width="1px" opacity="0.25"></line><line x1="250.71428571428572" y1="0" x2="250.71428571428572" y2="178" fill="rgb(0, 0, 0)" stroke="rgb(60, 60, 60)" stroke-width="1px" opacity="0.25"></line><line x1="270" y1="0" x2="270" y2="178" fill="rgb(0, 0, 0)" stroke="rgb(60, 60, 60)" stroke-width="1px" opacity="0.25"></line></g><g><line x1="0" y1="178" x2="270" y2="178" fill="rgb(0, 0, 0)" stroke="rgb(60, 60, 60)" stroke-width="1px" opacity="0.25"></line><line x1="0" y1="155.75" x2="270" y2="155.75" fill="rgb(0, 0, 0)" stroke="rgb(60, 60, 60)" stroke-width="1px" opacity="0.25"></line><line x1="0" y1="133.5" x2="270" y2="133.5" fill="rgb(0, 0, 0)" stroke="rgb(60, 60, 60)" stroke-width="1px" opacity="0.25"></line><line x1="0" y1="111.24999999999999" x2="270" y2="111.24999999999999" fill="rgb(0, 0, 0)" stroke="rgb(60, 60, 60)" stroke-width="1px" opacity="0.25"></line><line x1="0" y1="88.99999999999999" x2="270" y2="88.99999999999999" fill="rgb(0, 0, 0)" stroke="rgb(60, 60, 60)" stroke-width="1px" opacity="0.25"></line><line x1="0" y1="66.75" x2="270" y2="66.75" fill="rgb(0, 0, 0)" stroke="rgb(60, 60, 60)" stroke-width="1px" opacity="0.25"></line><line x1="0" y1="44.5" x2="270" y2="44.5" fill="rgb(0, 0, 0)" stroke="rgb(60, 60, 60)" stroke-width="1px" opacity="0.25"></line><line x1="0" y1="22.25" x2="270" y2="22.25" fill="rgb(0, 0, 0)" stroke="rgb(60, 60, 60)" stroke-width="1px" opacity="0.25"></line><line x1="0" y1="0" x2="270" y2="0" fill="rgb(0, 0, 0)" stroke="rgb(60, 60, 60)" stroke-width="1px" opacity="0.25"></line></g></g></g><g><g><line x1="0" y1="155.75" x2="270" y2="155.75" fill="rgb(0, 0, 0)" stroke="rgb(153, 153, 153)" stroke-width="1.5px"></line></g></g><g><g><line x1="19.285714285714285" y1="0" x2="19.285714285714285" y2="178" fill="rgb(0, 0, 0)" stroke="rgb(153, 153, 153)" stroke-width="1.5px"></line></g></g><g><g><g><g><g><path stroke="rgb(0, 119, 187)" stroke-width="2px" d="M19.285714285714285,-16.17347154021263L23.142857142857142,9.720474731177092L27,28.414032357991942L30.857142857142858,40.0216833664214L34.71428571428571,50.49188498718344L38.57142857142857,59.067577750617104L42.42857142857143,67.87848054095343L46.285714285714285,70.48862163125598L50.142857142857146,80.30385825163914L54,87.29681281760637L57.857142857142854,87.22700333838488L61.714285714285715,89.48436185370383L65.57142857142857,91.09777356259522L69.42857142857142,85.41665630411221L73.28571428571428,91.70705089596797L77.14285714285714,94.84546789566616L81,95.43215070837016L84.85714285714286,93.90213455456546L88.71428571428571,98.46828068824826L92.57142857142857,104.20885283525911L96.42857142857143,102.0071656326379L100.28571428571429,104.47433633696134L104.14285714285715,103.95366104676542L108,105.9319514358801L111.85714285714286,110.4156703048748L115.71428571428571,110.94775377639695L119.57142857142857,112.11060209038828L123.42857142857143,114.09922418502902L127.28571428571428,113.99252858109688L131.14285714285714,116.7753333453046L135,114.94463158128605L138.85714285714283,114.07354449538485L142.71428571428572,112.59878698881357L146.57142857142856,112.95490745370218L150.42857142857144,116.77807560676999L154.28571428571428,113.74187497115494L158.14285714285714,115.20720930300828L162,113.00298180001681L165.85714285714286,110.41390253812047L169.71428571428572,110.9565352906684L173.57142857142858,110.43496807234774L177.42857142857142,113.94969329596196L181.28571428571428,112.64801085470663L185.14285714285714,113.73611790543897L189,118.17540143837644L192.85714285714286,114.57608235104351L196.7142857142857,115.88636402923879L200.57142857142858,118.18274974911014L204.42857142857142,119.69893867130295L208.2857142857143,114.46848304479195L212.14285714285714,116.49226654714656L216,118.0516107806389L219.85714285714286,118.24048526458918L223.71428571428572,123.445144387328L227.57142857142858,126.54086939826406L231.42857142857142,124.66031672259973L235.28571428571428,121.8326478284639L239.14285714285714,121.46603482258567L243,122.69282357568898L246.85714285714286,123.12396023974038" style="fill: none; --darkreader-inline-stroke:#5cc4ff; --darkreader-inline-fill:none;" data-darkreader-inline-stroke="" data-darkreader-inline-fill="" fill="none"></path></g><g><path stroke="rgb(255, 112, 67)" stroke-width="2px" d="M23.142857142857142,-12.389400612562923L27,8.269747690886845L30.857142857142858,27.065819353741745L34.71428571428571,42.59550076542132L38.57142857142857,51.51813991553678L42.42857142857143,61.2355671640305L46.285714285714285,65.0147106381328L50.142857142857146,68.9574169933961L54,76.4423476742805L57.857142857142854,80.21436112862294L61.714285714285715,84.47135484001156L65.57142857142857,89.57036330786984L69.42857142857142,91.4694685281784L73.28571428571428,91.49925806123468L77.14285714285714,87.27556608374846L81,91.11757058711878L84.85714285714286,89.75485991046253L88.71428571428571,95.29908281083073L92.57142857142857,96.12424851116397L96.42857142857143,100.88206779587622L100.28571428571429,102.39464995134759L104.14285714285715,102.44410494204851L108,103.01914956795477L111.85714285714286,103.1880874497144L115.71428571428571,104.0277750577542L119.57142857142857,103.88505660804205L123.42857142857143,103.76834338478669L127.28571428571428,105.33534702920612L131.14285714285714,110.5415467671269L135,109.7763146220901L138.85714285714283,109.94318719399415L142.71428571428572,108.7613083524935L146.57142857142856,108.6206727526087L150.42857142857144,112.29110468388176L154.28571428571428,114.40426548193304L158.14285714285714,114.67153886346763L162,118.99663497557137L165.85714285714286,119.42656089491004L169.71428571428572,117.10005247357242L173.57142857142858,112.8027964453966L177.42857142857142,114.18885586454041L181.28571428571428,113.5144045994335L185.14285714285714,118.65694271687272L189,118.99805221062633L192.85714285714286,121.44309974388668L196.7142857142857,120.79543071789934L200.57142857142858,119.63994558631802L204.42857142857142,119.58112477647836L208.2857142857143,119.8859066360473L212.14285714285714,119.83150603731124L216,119.79338050102967L219.85714285714286,119.90742771754151L223.71428571428572,120.39339525657637L227.57142857142858,125.39229477142257L231.42857142857142,124.46766136702837L235.28571428571428,122.96330911884834L239.14285714285714,121.22657156568819L243,121.35585172225271L246.85714285714286,123.91640668361936" style="fill: none; --darkreader-inline-stroke:#ff7043; --darkreader-inline-fill:none;" data-darkreader-inline-stroke="" data-darkreader-inline-fill="" fill="none"></path></g></g></g></g><g opacity="0.2"><g><g><g><path stroke="rgb(0, 119, 187)" stroke-width="2px" d="M19.285714285714285,-16.17347154021263L23.142857142857142,25.256842494010925L27,46.35984767973423L30.857142857142858,53.672280952334404L34.71428571428571,64.16178022325039L38.57142857142857,70.93084809184074L42.42857142857143,80.478212505579L46.285714285714285,74.29423239827156L50.142857142857146,94.77942575514317L54,97.68053536117077L57.857142857142854,87.12292228639126L61.714285714285715,92.85811518132687L65.57142857142857,93.51262305676937L69.42857142857142,76.90611031651497L73.28571428571428,101.13524866104126L77.14285714285714,99.55087994039059L81,96.3119266629219L84.85714285714286,91.60749879479408L88.71428571428571,105.31680428236723L92.57142857142857,112.81918634474277L96.42857142857143,98.7047555744648L100.28571428571429,108.17501121014357L104.14285714285715,103.17265839129686L108,108.89936358481646L111.85714285714286,117.14121674001217L115.71428571428571,111.74587671458721L119.57142857142857,113.85487158596516L123.42857142857143,117.08215427398682L127.28571428571428,113.83248527348042L131.14285714285714,120.94953895360231L135,112.19857954233885L138.85714285714283,112.76691403985023L142.71428571428572,110.38665090501308L146.57142857142856,113.4890881255269L150.42857142857144,122.5128276720643L154.28571428571428,109.18757409602404L158.14285714285714,117.40521077811718L162,109.6966405659914L165.85714285714286,106.53028365969658L169.71428571428572,111.77048441767693L173.57142857142858,109.65261724591255L177.42857142857142,119.22178112715483L181.28571428571428,110.69548719376326L185.14285714285714,115.36827848106623L189,124.83432673662901L192.85714285714286,109.17710372060537L196.7142857142857,117.85178654640913L200.57142857142858,121.62732832878828L204.42857142857142,121.97322205454111L208.2857142857143,106.62279960513115L212.14285714285714,119.52794180065393L216,120.39062713086605L219.85714285714286,118.5237969905138L223.71428571428572,131.25213307142258L227.57142857142858,131.18445691466331L231.42857142857142,121.83948770910501L235.28571428571428,117.59114448726177L239.14285714285714,120.91611531376839L243,124.53300670534372L246.85714285714286,123.77066523581743" style="fill: none; --darkreader-inline-stroke:#5cc4ff; --darkreader-inline-fill:none;" data-darkreader-inline-stroke="" data-darkreader-inline-fill="" fill="none"></path></g><g><path stroke="rgb(255, 112, 67)" stroke-width="2px" d="M19.285714285714285,-46.31518247723582L23.142857142857142,7.966068506240845L27,28.10253006219864L30.857142857142858,49.16999962925911L34.71428571428571,62.8710528165102L38.57142857142857,63.861362010240555L42.42857142857143,75.13164360821247L46.285714285714285,70.52473810315132L50.142857142857146,74.77214303612709L54,87.55659741163254L57.857142857142854,85.83816942572594L61.714285714285715,90.83367903530598L65.57142857142857,97.20222686231136L69.42857142857142,94.31440581381321L73.28571428571428,91.54390734434128L77.14285714285714,80.94300699234009L81,96.87895153462887L84.85714285714286,87.71113988757133L88.71428571428571,103.61457255482674L92.57142857142857,97.36192163825035L96.42857142857143,108.0185357928276L100.28571428571429,104.66347341239452L104.14285714285715,102.51828645169735L108,103.88170969486237L111.85714285714286,103.4414930716157L115.71428571428571,105.28730288892984L119.57142857142857,103.67097929865122L123.42857142857143,103.59327372908592L127.28571428571428,107.68585105240345L131.14285714285714,118.35084349662066L135,108.6284666582942L138.85714285714283,110.19349601864815L142.71428571428572,106.98849023133516L146.57142857142856,108.40971936285496L150.42857142857144,117.79675242304802L154.28571428571428,117.57400662451982L158.14285714285714,115.07244893163443L162,125.48427910357714L165.85714285714286,120.07144977152348L169.71428571428572,113.61028984934092L173.57142857142858,106.35691241174936L177.42857142857142,116.26794499158859L181.28571428571428,112.50272770226002L185.14285714285714,126.37074989080429L189,119.50971645116806L192.85714285714286,125.110671043396L196.7142857142857,119.82392717897892L200.57142857142858,117.9067178890109L204.42857142857142,119.49289356172085L208.2857142857143,120.34307942539454L212.14285714285714,119.74990513920784L216,119.73619219660759L219.85714285714286,120.07849854230881L223.71428571428572,121.12234656512737L227.57142857142858,132.890644043684L231.42857142857142,123.08071126043797L235.28571428571428,120.70678074657917L239.14285714285714,118.62146523594856L243,121.54977195709944L246.85714285714286,127.757239125669" style="fill: none; --darkreader-inline-stroke:#ff7043; --darkreader-inline-fill:none;" data-darkreader-inline-stroke="" data-darkreader-inline-fill="" fill="none"></path></g></g></g></g></g></g><g transform="translate(60, 178)" clip-path="url(#clip_1)"><clipPath id="clip_1"><rect width="270" height="22"></rect></clipPath><g><g><line x1="0" y1="0" x2="0" y2="5" style="visibility: inherit;" fill="rgb(0, 0, 0)" stroke="rgb(204, 204, 204)" stroke-width="1px"></line><line x1="19.285714285714285" y1="0" x2="19.285714285714285" y2="5" style="visibility: inherit;" fill="rgb(0, 0, 0)" stroke="rgb(204, 204, 204)" stroke-width="1px"></line><line x1="38.57142857142857" y1="0" x2="38.57142857142857" y2="5" style="visibility: inherit;" fill="rgb(0, 0, 0)" stroke="rgb(204, 204, 204)" stroke-width="1px"></line><line x1="57.857142857142854" y1="0" x2="57.857142857142854" y2="5" style="visibility: inherit;" fill="rgb(0, 0, 0)" stroke="rgb(204, 204, 204)" stroke-width="1px"></line><line x1="77.14285714285714" y1="0" x2="77.14285714285714" y2="5" style="visibility: inherit;" fill="rgb(0, 0, 0)" stroke="rgb(204, 204, 204)" stroke-width="1px"></line><line x1="96.42857142857143" y1="0" x2="96.42857142857143" y2="5" style="visibility: inherit;" fill="rgb(0, 0, 0)" stroke="rgb(204, 204, 204)" stroke-width="1px"></line><line x1="115.71428571428571" y1="0" x2="115.71428571428571" y2="5" style="visibility: inherit;" fill="rgb(0, 0, 0)" stroke="rgb(204, 204, 204)" stroke-width="1px"></line><line x1="135" y1="0" x2="135" y2="5" style="visibility: inherit;" fill="rgb(0, 0, 0)" stroke="rgb(204, 204, 204)" stroke-width="1px"></line><line x1="154.28571428571428" y1="0" x2="154.28571428571428" y2="5" style="visibility: inherit;" fill="rgb(0, 0, 0)" stroke="rgb(204, 204, 204)" stroke-width="1px"></line><line x1="173.57142857142858" y1="0" x2="173.57142857142858" y2="5" style="visibility: inherit;" fill="rgb(0, 0, 0)" stroke="rgb(204, 204, 204)" stroke-width="1px"></line><line x1="192.85714285714286" y1="0" x2="192.85714285714286" y2="5" style="visibility: inherit;" fill="rgb(0, 0, 0)" stroke="rgb(204, 204, 204)" stroke-width="1px"></line><line x1="212.14285714285714" y1="0" x2="212.14285714285714" y2="5" style="visibility: inherit;" fill="rgb(0, 0, 0)" stroke="rgb(204, 204, 204)" stroke-width="1px"></line><line x1="231.42857142857142" y1="0" x2="231.42857142857142" y2="5" style="visibility: inherit;" fill="rgb(0, 0, 0)" stroke="rgb(204, 204, 204)" stroke-width="1px"></line><line x1="250.71428571428572" y1="0" x2="250.71428571428572" y2="5" style="visibility: inherit;" fill="rgb(0, 0, 0)" stroke="rgb(204, 204, 204)" stroke-width="1px"></line><line x1="270" y1="0" x2="270" y2="5" style="visibility: inherit;" fill="rgb(0, 0, 0)" stroke="rgb(204, 204, 204)" stroke-width="1px"></line></g><g transform="translate(0, 8)"><text x="0" y="0" dx="0em" dy="0.95em" style="text-anchor: middle; visibility: hidden; font-family: &quot;Helvetica Neue&quot;, sans-serif; font-size: 12px; font-weight: 200;" fill="rgb(50, 49, 63)" stroke="none" stroke-width="1px">-5</text><text x="19.285714285714285" y="0" dx="0em" dy="0.95em" style="text-anchor: middle; visibility: inherit; font-family: &quot;Helvetica Neue&quot;, sans-serif; font-size: 12px; font-weight: 200;" fill="rgb(50, 49, 63)" stroke="none" stroke-width="1px">0</text><text x="38.57142857142857" y="0" dx="0em" dy="0.95em" style="text-anchor: middle; visibility: inherit; font-family: &quot;Helvetica Neue&quot;, sans-serif; font-size: 12px; font-weight: 200;" fill="rgb(50, 49, 63)" stroke="none" stroke-width="1px">5</text><text x="57.857142857142854" y="0" dx="0em" dy="0.95em" style="text-anchor: middle; visibility: inherit; font-family: &quot;Helvetica Neue&quot;, sans-serif; font-size: 12px; font-weight: 200;" fill="rgb(50, 49, 63)" stroke="none" stroke-width="1px">10</text><text x="77.14285714285714" y="0" dx="0em" dy="0.95em" style="text-anchor: middle; visibility: inherit; font-family: &quot;Helvetica Neue&quot;, sans-serif; font-size: 12px; font-weight: 200;" fill="rgb(50, 49, 63)" stroke="none" stroke-width="1px">15</text><text x="96.42857142857143" y="0" dx="0em" dy="0.95em" style="text-anchor: middle; visibility: inherit; font-family: &quot;Helvetica Neue&quot;, sans-serif; font-size: 12px; font-weight: 200;" fill="rgb(50, 49, 63)" stroke="none" stroke-width="1px">20</text><text x="115.71428571428571" y="0" dx="0em" dy="0.95em" style="text-anchor: middle; visibility: inherit; font-family: &quot;Helvetica Neue&quot;, sans-serif; font-size: 12px; font-weight: 200;" fill="rgb(50, 49, 63)" stroke="none" stroke-width="1px">25</text><text x="135" y="0" dx="0em" dy="0.95em" style="text-anchor: middle; visibility: inherit; font-family: &quot;Helvetica Neue&quot;, sans-serif; font-size: 12px; font-weight: 200;" fill="rgb(50, 49, 63)" stroke="none" stroke-width="1px">30</text><text x="154.28571428571428" y="0" dx="0em" dy="0.95em" style="text-anchor: middle; visibility: inherit; font-family: &quot;Helvetica Neue&quot;, sans-serif; font-size: 12px; font-weight: 200;" fill="rgb(50, 49, 63)" stroke="none" stroke-width="1px">35</text><text x="173.57142857142858" y="0" dx="0em" dy="0.95em" style="text-anchor: middle; visibility: inherit; font-family: &quot;Helvetica Neue&quot;, sans-serif; font-size: 12px; font-weight: 200;" fill="rgb(50, 49, 63)" stroke="none" stroke-width="1px">40</text><text x="192.85714285714286" y="0" dx="0em" dy="0.95em" style="text-anchor: middle; visibility: inherit; font-family: &quot;Helvetica Neue&quot;, sans-serif; font-size: 12px; font-weight: 200;" fill="rgb(50, 49, 63)" stroke="none" stroke-width="1px">45</text><text x="212.14285714285714" y="0" dx="0em" dy="0.95em" style="text-anchor: middle; visibility: inherit; font-family: &quot;Helvetica Neue&quot;, sans-serif; font-size: 12px; font-weight: 200;" fill="rgb(50, 49, 63)" stroke="none" stroke-width="1px">50</text><text x="231.42857142857142" y="0" dx="0em" dy="0.95em" style="text-anchor: middle; visibility: inherit; font-family: &quot;Helvetica Neue&quot;, sans-serif; font-size: 12px; font-weight: 200;" fill="rgb(50, 49, 63)" stroke="none" stroke-width="1px">55</text><text x="250.71428571428572" y="0" dx="0em" dy="0.95em" style="text-anchor: middle; visibility: inherit; font-family: &quot;Helvetica Neue&quot;, sans-serif; font-size: 12px; font-weight: 200;" fill="rgb(50, 49, 63)" stroke="none" stroke-width="1px">60</text><text x="270" y="0" dx="0em" dy="0.95em" style="text-anchor: middle; visibility: hidden; font-family: &quot;Helvetica Neue&quot;, sans-serif; font-size: 12px; font-weight: 200;" fill="rgb(50, 49, 63)" stroke="none" stroke-width="1px">65</text></g><line x1="0" y1="0" x2="270" y2="0" fill="rgb(0, 0, 0)" stroke="rgb(204, 204, 204)" stroke-width="1px"></line></g></g></g></g></svg>